<?xml version="1.0" encoding="UTF-8" standalone="no"?>
<svg
   xmlns:dc="http://purl.org/dc/elements/1.1/"
   xmlns:cc="http://creativecommons.org/ns#"
   xmlns:rdf="http://www.w3.org/1999/02/22-rdf-syntax-ns#"
   xmlns:svg="http://www.w3.org/2000/svg"
   xmlns="http://www.w3.org/2000/svg"
   xmlns:xlink="http://www.w3.org/1999/xlink"
   xmlns:sodipodi="http://sodipodi.sourceforge.net/DTD/sodipodi-0.dtd"
   xmlns:inkscape="http://www.inkscape.org/namespaces/inkscape"
   width="357.653"
   height="433.474"
   viewBox="0 0 94.629 114.69"
   version="1.1"
   id="svg558"
   sodipodi:docname="Seal of Bangkalan Regency (1).svg"
   inkscape:version="1.0.1 (3bc2e813f5, 2020-09-07)">
  <metadata
     id="metadata562">
    <rdf:RDF>
      <cc:Work
         rdf:about="">
        <dc:format>image/svg+xml</dc:format>
        <dc:type
           rdf:resource="http://purl.org/dc/dcmitype/StillImage" />
      </cc:Work>
    </rdf:RDF>
  </metadata>
  <sodipodi:namedview
     pagecolor="#ffffff"
     bordercolor="#666666"
     borderopacity="1"
     objecttolerance="10"
     gridtolerance="10"
     guidetolerance="10"
     inkscape:pageopacity="0"
     inkscape:pageshadow="2"
     inkscape:window-width="1366"
     inkscape:window-height="705"
     id="namedview560"
     showgrid="false"
     inkscape:zoom="1.3992954"
     inkscape:cx="198.00948"
     inkscape:cy="127.40165"
     inkscape:window-x="-8"
     inkscape:window-y="-8"
     inkscape:window-maximized="1"
     inkscape:current-layer="svg558"
     inkscape:document-rotation="0"
     inkscape:snap-global="false"
     inkscape:snap-bbox="true"
     inkscape:bbox-paths="true"
     inkscape:bbox-nodes="true"
     inkscape:snap-bbox-edge-midpoints="true"
     inkscape:snap-bbox-midpoints="true"
     inkscape:object-paths="true"
     inkscape:snap-intersection-paths="true"
     inkscape:snap-smooth-nodes="true"
     inkscape:snap-midpoints="true" />
  <style
     id="style2"><![CDATA[.X{stroke-linejoin:round}.Y{fill:#f5c742}.Z{fill:#ffeba3}.a{stroke:#a07843}.b{opacity:.998}.c{stroke-width:.132}.d{fill:#fff}.e{stroke-width:.065}.f{stroke:#225035}.g{stroke:#dcdcdc}.h{fill:#2b6643}.i{fill:gold}.j{stroke:#b09500}.k{fill-rule:evenodd}.l{fill:none}.m{stroke-width:.529}.n{stroke:#8b0000}.o{opacity:.999}.p{stroke-linecap:round}]]></style>
  <defs
     id="defs28">
    <linearGradient
       id="A"
       gradientUnits="userSpaceOnUse">
      <stop
         offset="0"
         stop-color="#bfbfbf"
         id="stop4" />
      <stop
         offset="1"
         stop-color="#fff"
         id="stop6" />
    </linearGradient>
    <linearGradient
       xlink:href="#A"
       id="B"
       x1="87.841"
       y1="199.049"
       x2="82.18"
       y2="199.049" />
    <linearGradient
       xlink:href="#A"
       id="C"
       x1="122.159"
       y1="199.049"
       x2="127.82"
       y2="199.049" />
    <path
       id="D"
       d="M90.947 202.618v-2.17h-.564v-.442h1.509v.442h-.562v2.17z" />
    <path
       id="E"
       d="M93.656 202.618h-.417l-.166-.593h-.759l-.157.593h-.407l.74-2.612h.406zm-.706-1.033l-.262-.969-.257.969z" />
    <path
       id="F"
       d="M97.15 200.007h.701q.237 0 .361.05.167.068.286.241.119.173.181.424.062.249.062.616 0 .322-.058.556-.071.285-.203.461-.1.134-.269.208-.127.055-.339.055h-.722zm.384.442v1.73h.286q.161 0 .232-.025.093-.032.154-.109.062-.077.101-.251.039-.176.039-.479 0-.303-.039-.465-.039-.162-.109-.253-.07-.091-.178-.123-.08-.025-.315-.025z" />
    <path
       id="G"
       d="M127.296 198.229h2.305v1.19h-2.305z" />
    <path
       id="H"
       d="M173.653 209.369c.388.014.513.217.692.381-.294-.087-.563-.189-.692-.381z" />
    <path
       id="I"
       d="M173.404 208.519c.007-.388.207-.517.368-.699-.081.296-.179.567-.368.699z" />
    <path
       id="J"
       d="M173.937 207.522c-.826.602-.675 1.105-.737 1.629.356-.433.777-.8.737-1.629zm-.572 1.677l-.197.008c.406.659.972.922 1.691.805-.459-.296-.567-.818-1.494-.813z" />
    <path
       id="K"
       d="M106.538 144.754c.084-.274-.31-.289-.339-.075-.43-.185-.214.641.023.633l.528-.311c.068-.036.012-.342-.212-.246z" />
    <path
       id="L"
       d="M105.751 146.098l.178-.376c-.184-.335-.092-.538-.083-.781.068.03.19.006.198.095.048-.086.154-.129.289-.149.019.083.059.165-.017.248.135-.08.27-.053.405-.037-.224.245-.364.542-.732.641z" />
    <path
       id="M"
       d="M94.205 137.91c-.085 1.035-.423 2.072-.182 3.111.28.652-.424 1.005-.547 1.575-.309.672-.442 1.428-.547 2.171-.132.707-.437 1.366-.696 2.032-.426.469-.579 1.034-.958 1.512-.479.206-1.033.039-1.546.087-.842-.006-1.687.041-2.518-.124-.595-.118-1.218-.083-1.797-.26-.677-.188-.509-1.101-.688-1.437-.705-.061-1.763.624-2.115-.362-.044-.783-.745-.991-1.375-.683-.56.176-1.497 1.023-1.918.342a6.32 6.32 0 0 1 .035-1.967c.142-.606.611-1.153 1.242-1.26.94-.496-.418-1.135-.565-1.723-.386-.783-.036-1.669.375-2.364.69-.2 1.419.054 2.108.125.646.355 1.205-.131 1.757-.401.725-.242 1.498-.043 2.246-.109.757.072 1.496.177 2.236.365.717.06 1.152-.654 1.72-.973.475-.151 1.007.082 1.498.136.595.169 1.22-.073 1.798.168a1.14 1.14 0 0 0 .437.039z" />
    <path
       id="N"
       d="M90.867 154.986c.301 0 .649.062 1.191 0s.924-1.051 1.058-1.588h0c.194-1.164-.413-2.167-1.283-2.962-1.59-1.453-.525-3.268-1.451-4.985-.982-1.82.037-4.143 1.749-5.378 1.651-1.19 3.13-1.904 4.153-3.875 1.198-.3.768 3.129.715 4.17 1.028 1.289 1.805 1.853 1.323 3.685 1.002 2.006.066 4.362-.223 6.223-.373.288-.736-.126-.931.303-.442.971-.144 2.258-1.488 2.143-.469 1.162-.004 2.677-1.016 3.885-5.257 7.058-17.862 9.784-18.266 20.776-.419 4.583 2.246 11.698 7.072 7.58.875-.747.3-2.126-.64-2.364-.755-.192-1.762.553-2.314 1.447-1.258-1.533 1.96-2.016.501-2.525-2.111.627-3.607-2.056-2.13-3.62 1.308-1.623.776 1.229 2.009 1.32 2.283.247 3.702 2.022 4.064 4.205 1.104-.355.751-3.719 1.014-5.29l1.521-.099-1.191 5.854c2.32-.083 3.201-1.231 3.142-3.076 2.907.146 2.726 1.555 1.786 3.274.827 1.975-.651 2.46-1.158 3.572-.11-1.414-1.668-5.083-6.846.992-1.809.7-1.643 2.278-6.284 1.72-1.191.313-2.381.203-3.572-.099-1.131-.594-1.392-2.044-2.42-2.593-.665-1.191-.943-2.486-1.467-3.681-.882-1.198-1.221-2.681-1.14-4.156.281-1.986-.685-3.852-.901-5.797.003-1.448.13-2.94.481-4.33.685-1.609.155-3.313.344-4.976.237-1.412.292-3.365 1.861-3.966 1.61-.548 3.81.542 5.149-.771.656-1.653 2.195-2.575 3.805-2.993 1.449-.411 2.508-1.618 4.051-1.745 1.257-.266 2.548-.363 3.831-.281z" />
    <path
       id="O"
       d="M80.515 156.342c-1.334 3.32 5.631 1.397 8.538 2.12" />
    <path
       id="P"
       d="M75.277 160.005c-.016 1.145-.778 2.019-1.403 2.877-.068.988-.472 1.785-1.354 2.23-.435 1.053-.04 2.302-.756 3.288-.589 1.042-.119 2.217-.206 3.334l-.014 2.62c-.505 1.274-.413 2.608-.267 3.907-.046 1.57.46 3.148.077 4.699-.042 1.06.459 2.06 1.084 2.879.663.758.451 1.931 1.44 2.482.458.947 1.315 1.512 2.336 1.744l.726.31" />
    <path
       id="Q"
       d="M84.35 187.429c-1.666-.003-3.3 1.377-4.936.515-1.22-.83-2.823-1.377-3.425-2.843-.359-1.187-1.447-2.064-1.468-3.355.104-2.219-.33-4.514.46-6.655.486-2.037 1.191-4.034 2.433-5.742l2.325-3.28c2.546-3.004 3.929-3.662 7.265-5.854.965-.634 1.778-1.411 2.523-2.287 1.067-.783 1.646-2.056 2.563-2.985.106-.117.296-.032.297.109" />
    <path
       id="R"
       d="M87.494 149.977c4.245-.751.167 2.705 1.422 5.009-1.22-.654-3.698-4.607-1.422-5.009z" />
    <path
       id="S"
       d="M87.791 172.912c-.946.057-1.878.267-2.797.484-.371.202-.799.15-1.181.293-.492.16-1.032.106-1.503.316-.488.204-.898.579-.683 1.149.113.478.804.459.905.949-.057.456.066.906.181 1.346.043.446.326.923.831.896.414.053.821-.152 1.095-.441.151-.344.515-.286.451.113.068.409.306.986.81.926.402-.155.741-.023.963.333.368.253.669.652 1.14.704.468.065 1.051.109 1.227-.456.261-.328.299-.755.498-1.112.271-.445.108-.992.143-1.482.021-.541-.212-1.034-.512-1.467-.386-.459-.594-1.03-.968-1.498-.168-.155.176-.021-.099-.229-.237-.229-.302-.57-.502-.824z" />
    <path
       id="T"
       d="M87.361 174.268c-1.726.342-2.729.684-3.77 1.025.73.143 1.596.287 1.654.43.079.448-.44.673-1.058.86.772-.022.654-.341 2.315-.066l.198 1.191c.143-.459.169-.964.728-1.257.994.236 1.086.923 1.224 1.588-.301-1.18 1.122-1.339-1.29-3.77z" />
  </defs>
  <g
     id="g1939">
    <path
       d="m 47.314,0 -0.959,0.996 c -3.647,3.785 -7.61,3.896 -12.051,4.672 -4.279,0.748 -8.889,2.448 -12.365,8.646 -2.586,0.058 -4.914,0.849 -6.855,2.23 -2.161,1.537 -3.946,3.631 -5.559,5.861 C 6.3,26.866 3.656,31.928 0.92,34.37 L 0,35.19 0.746,36.17 c 0.909,1.196 1.21,2.957 1.139,5.189 -0.071,2.232 -0.505,4.848 -0.785,7.531 -0.28,2.683 -0.416,5.452 0.246,8.068 0.595,2.353 2.05,4.499 4.357,6.164 -1.005,7.537 1.353,11.607 4.27,14.715 3.021,3.218 6.291,5.631 7.738,11.588 l 0.328,1.35 1.336,-0.381 c 5.303,-1.517 8.584,0.308 12.633,2.279 3.966,1.931 8.661,3.878 15.309,1.965 6.646,1.912 11.339,-0.034 15.305,-1.965 4.049,-1.971 7.332,-3.796 12.635,-2.279 l 1.334,0.381 0.328,-1.35 c 1.448,-5.957 4.719,-8.369 7.74,-11.588 2.917,-3.108 5.272,-7.178 4.268,-14.715 2.307,-1.665 3.762,-3.811 4.357,-6.164 0.662,-2.616 0.528,-5.385 0.248,-8.068 -0.28,-2.683 -0.714,-5.298 -0.785,-7.531 -0.071,-2.233 0.228,-3.994 1.137,-5.189 L 94.63,35.19 93.71,34.37 C 90.973,31.929 88.33,26.866 85.105,22.405 83.492,20.175 81.709,18.081 79.548,16.544 77.606,15.163 75.279,14.371 72.693,14.314 69.217,8.116 64.607,6.415 60.328,5.668 55.887,4.892 51.924,4.782 48.277,0.996 Z"
       id="path30" />
    <path
       d="M 90.962,50.045 H 3.669 c -0.195,2.257 -0.204,4.414 0.263,6.262 0.528,2.085 1.572,3.786 3.822,5.15 l 0.768,0.467 -0.143,0.885 c -1.2,7.459 0.732,10.218 3.537,13.207 2.623,2.794 6.174,5.785 7.969,11.633 5.491,-1.118 9.589,0.829 13.291,2.631 3.99,1.942 7.63,3.629 13.746,1.74 l 0.393,-0.121 0.394,0.121 c 6.116,1.889 9.756,0.202 13.746,-1.74 3.702,-1.802 7.801,-3.749 13.291,-2.631 1.794,-5.847 5.346,-8.839 7.969,-11.633 2.806,-2.989 4.735,-5.748 3.535,-13.207 l -0.143,-0.885 0.767,-0.467 c 2.25,-1.364 3.296,-3.065 3.824,-5.15 0.467,-1.847 0.458,-4.005 0.263,-6.262 z"
       fill="#004a91"
       class="o"
       id="path32" />
    <path
       d="M 3.669,50.045 3.752,49.17 4.551,41.447 c 0.066,-2.08 -0.288,-4.053 -1.201,-5.799 3.072,-3.085 5.492,-7.744 8.337,-11.68 1.526,-2.111 3.156,-3.98 4.943,-5.252 1.787,-1.272 3.69,-1.97 6.01,-1.847 l 0.859,0.047 0.394,-0.765 c 3.169,-6.129 6.669,-7.122 10.869,-7.856 3.899,-0.681 8.464,-1.075 12.553,-4.689 4.088,3.613 8.653,4.008 12.551,4.689 4.201,0.734 7.7,1.727 10.869,7.856 l 0.394,0.765 0.859,-0.047 c 2.32,-0.122 4.223,0.576 6.01,1.847 1.787,1.271 3.417,3.141 4.943,5.252 2.846,3.936 5.266,8.595 8.338,11.68 -0.913,1.745 -1.268,3.718 -1.201,5.799 0.079,2.502 0.53,5.15 0.799,7.723 l 0.083,0.875 z"
       fill="#76c5f0"
       id="path34" />
  </g>
  <g
     id="g1934">
    <g
       class="k"
       id="g40"
       transform="translate(-57.686,-117.283)">
      <path
         d="m 74.662,207.167 -0.368,0.404 -8.117,8.91 0.405,0.369 a 57.05,57.05 0 0 0 76.835,0 l 0.405,-0.369 -8.484,-9.314 -0.405,0.367 c -8.099,7.349 -18.994,11.593 -29.934,11.593 -10.94,0 -21.834,-4.244 -29.933,-11.593 z"
         stroke="#000000"
         stroke-width="0.495"
         class="i o"
         id="path36" />
      <path
         d="m 74.753,208.693 c 8.26,7.312 19.206,11.53 30.247,11.53 11.041,0 21.988,-4.218 30.248,-11.529 l 7.011,7.697 c -10.25,9.154 -23.503,14.239 -37.258,14.24 -13.755,0.001 -27.009,-5.085 -37.259,-14.24 z"
         class="o"
         id="path38" />
    </g>
    <path
       d="m 19.489552,97.258614 -0.811103,1.340911 1.493957,0.903804 q 0.400352,0.242373 0.737447,0.24306 0.344071,-4.64e-4 0.575793,-0.384581 0.256848,-0.424671 0.0095,-0.761385 -0.227848,-0.26712 -0.668754,-0.534618 z m -1.420392,2.348365 -0.981053,1.621661 1.493958,0.90381 q 0.400352,0.24237 0.688,0.26914 0.524135,0.0466 0.864035,-0.51487 0.286778,-0.47433 0.0027,-0.88927 -0.159062,-0.2316 -0.552437,-0.47512 z m 3.800873,-2.352005 q 1.108296,0.693121 1.19313,1.606496 0.04612,0.558131 -0.28124,1.098359 -0.336987,0.557441 -0.822444,0.726011 -0.272005,0.0949 -0.671692,0.0676 0.363874,0.45121 0.376936,0.96105 0.01711,0.51175 -0.299602,1.03574 -0.327358,0.54023 -0.858743,0.80482 -0.345187,0.17953 -0.722469,0.21672 -0.428118,0.0453 -0.877679,-0.11399 -0.446519,-0.15735 -0.912745,-0.4393 l -2.756823,-1.66759 3.678904,-6.083236 z m 2.994197,6.522586 1.655884,0.71424 0.293725,-2.92005 z m 1.836124,-4.024781 1.540782,0.664731 -0.504887,7.52472 -1.479189,-0.63806 0.157982,-1.52378 -2.405063,-1.03708 -1.030369,1.14663 -1.425681,-0.61522 z m 0.761306,0.328561 z m 3.699542,1.5061 1.501368,0.41553 1.404483,5.53884 1.324558,-4.78286 1.334322,0.36914 -1.896813,6.85176 -1.431928,-0.39603 -1.450729,-5.64186 -1.347752,4.86638 -1.334321,-0.36914 z m 2.839385,0.77059 z m 8.262608,3.81066 q -0.07415,-0.74357 -0.687335,-1.11435 -0.34352,-0.2046 -0.787869,-0.26197 -0.851577,-0.10956 -1.485255,0.46532 -0.627766,0.57076 -0.79478,1.86268 -0.167819,1.30095 0.355684,1.91774 0.523503,0.61679 1.278799,0.71443 0.741256,0.0959 1.269472,-0.26861 0.529108,-0.36956 0.728415,-1.04904 l -1.630954,-0.21067 0.151513,-1.17657 2.936899,0.37838 -0.488041,3.78348 -0.97596,-0.12586 -0.03452,-0.89946 q -0.490402,0.44774 -0.856975,0.60973 -0.629993,0.28374 -1.48157,0.17418 -1.401248,-0.18064 -2.171,-1.2672 -0.806959,-1.09575 -0.588659,-2.78989 0.22091,-1.71219 1.296389,-2.62374 1.07548,-0.91154 2.62517,-0.71211 1.344067,0.17288 2.069363,0.96233 0.730187,0.78435 0.718625,1.81884 z m -1.342619,-2.59549 z m 4.274529,0.62342 1.46096,-0.0177 0.03452,2.92794 2.709439,-2.95948 1.91996,-0.0226 -2.87842,2.96214 3.111659,4.14547 -1.909963,0.0224 -2.231346,-3.08032 -0.700191,0.73636 0.02759,2.37796 -1.46096,0.0177 z m 9.44239,3.9261 1.784698,-0.26378 -1.286522,-2.63771 z m -0.55634,-4.38897 1.660075,-0.24507 3.530412,6.66499 -1.593264,0.23561 -0.667068,-1.37885 -2.591295,0.3833 -0.27315,1.51728 -1.536429,0.22739 z m 0.820572,-0.12083 z m 4.023449,-0.71445 1.430613,-0.40212 1.577156,5.6141 3.38913,-0.95274 0.345781,1.23079 -4.819743,1.35487 z m 9.137619,1.68118 1.660094,-0.70518 -1.910783,-2.22807 z m -1.644464,-4.10629 1.545119,-0.656676 5.096784,5.558746 -1.482698,0.62931 -0.993521,-1.16572 -2.410364,1.02353 0.118387,1.53779 -1.429166,0.60715 z m 0.763138,-0.32463 z m 3.646293,-1.639488 1.336978,-0.799191 4.9761,2.808719 -2.545028,-4.260797 1.18788,-0.709936 3.646256,6.103343 -1.274774,0.76183 -5.082943,-2.846408 2.589645,4.334848 -1.18788,0.70993 z m 2.518598,-1.520993 z"
       class="i"
       id="path42" />
  </g>
  <g
     id="g2063">
    <g
       stroke="#696969"
       stroke-width="0.37"
       class="X"
       id="g52"
       transform="translate(-57.686,-117.283)">
      <path
         d="m 78.588,196.373 2.23,2.677 -2.23,2.676 h 8.674 v -2.676 -2.677 z"
         fill="url(#B)"
         id="path44"
         style="fill:url(#B);" />
      <path
         d="m 131.412,196.373 -2.23,2.677 2.23,2.676 h -8.674 v -2.676 -2.677 z"
         fill="url(#C)"
         id="path46"
         style="fill:url(#C);" />
      <path
         d="m 87.262,196.373 v 5.353 l -2.507,2.313 v -5.321 z m 35.476,0 v 5.353 l 2.507,2.313 v -5.321 z"
         fill="#bfbfbf"
         id="path48" />
      <path
         d="m 84.755,198.718 h 40.49 v 5.321 h -40.49 z"
         class="d k o"
         id="path50" />
    </g>
    <g
       fill="#ff0000"
       id="g88"
       transform="translate(-57.686,-117.283)">
      <path
         d="m 87.312,201.658 0.372,0.162 q -0.086,0.428 -0.285,0.636 -0.198,0.207 -0.504,0.207 -0.378,0 -0.622,-0.355 -0.244,-0.356 -0.244,-0.973 0,-0.652 0.245,-1.012 0.245,-0.362 0.644,-0.362 0.349,0 0.566,0.283 0.13,0.167 0.194,0.481 l -0.38,0.125 q -0.034,-0.203 -0.141,-0.321 -0.106,-0.118 -0.259,-0.118 -0.211,0 -0.343,0.208 -0.131,0.208 -0.131,0.675 0,0.495 0.13,0.705 0.13,0.21 0.337,0.21 0.153,0 0.263,-0.134 0.11,-0.134 0.158,-0.42 z m 0.689,0.96 v -2.612 h 0.383 v 2.612 z m 0.749,0 v -2.612 h 0.615 q 0.35,0 0.456,0.039 0.163,0.059 0.273,0.257 0.11,0.196 0.11,0.508 0,0.241 -0.063,0.404 -0.063,0.164 -0.162,0.258 -0.097,0.093 -0.198,0.123 -0.137,0.037 -0.398,0.037 h -0.25 v 0.985 z m 0.383,-2.17 v 0.741 h 0.21 q 0.227,0 0.303,-0.041 0.076,-0.041 0.119,-0.128 0.044,-0.087 0.044,-0.203 0,-0.143 -0.061,-0.235 -0.061,-0.093 -0.154,-0.116 -0.069,-0.018 -0.276,-0.018 z"
         id="path54" />
      <path
         id="use56"
         d="m 90.947,202.618 v -2.17 h -0.564 v -0.442 h 1.509 v 0.442 H 91.33 v 2.17 z" />
      <path
         id="use58"
         d="m 93.656,202.618 h -0.417 l -0.166,-0.593 h -0.759 l -0.157,0.593 H 91.75 l 0.74,-2.612 h 0.406 z m -0.706,-1.033 -0.262,-0.969 -0.257,0.969 z" />
      <path
         d="m 94.487,202.618 v -2.612 h 0.383 v 2.612 z m 0.752,0 v -2.612 h 0.373 l 0.777,1.744 v -1.744 h 0.356 v 2.612 H 96.36 l -0.766,-1.703 v 1.703 z"
         id="path60" />
      <path
         id="use62"
         d="m 97.15,200.007 h 0.701 q 0.237,0 0.361,0.05 0.167,0.068 0.286,0.241 0.119,0.173 0.181,0.424 0.062,0.249 0.062,0.616 0,0.322 -0.058,0.556 -0.071,0.285 -0.203,0.461 -0.1,0.134 -0.269,0.208 -0.127,0.055 -0.339,0.055 H 97.15 Z m 0.384,0.442 v 1.73 h 0.286 q 0.161,0 0.232,-0.025 0.093,-0.032 0.154,-0.109 0.062,-0.077 0.101,-0.251 0.039,-0.176 0.039,-0.479 0,-0.303 -0.039,-0.465 -0.039,-0.162 -0.109,-0.253 -0.07,-0.091 -0.178,-0.123 -0.08,-0.025 -0.315,-0.025 z" />
      <path
         d="m 99.069,202.618 v -2.612 h 0.807 q 0.304,0 0.442,0.071 0.139,0.069 0.222,0.249 0.083,0.18 0.083,0.412 0,0.294 -0.126,0.486 -0.126,0.191 -0.376,0.24 0.124,0.1 0.205,0.219 0.082,0.119 0.219,0.424 l 0.232,0.509 h -0.459 l -0.277,-0.568 q -0.148,-0.305 -0.202,-0.383 -0.054,-0.08 -0.115,-0.109 -0.061,-0.03 -0.193,-0.03 h -0.078 v 1.09 z m 0.383,-1.507 h 0.284 q 0.276,0 0.345,-0.032 0.069,-0.032 0.108,-0.11 0.039,-0.078 0.039,-0.196 0,-0.132 -0.052,-0.212 -0.05,-0.082 -0.144,-0.103 -0.047,-0.009 -0.28,-0.009 h -0.299 z"
         id="path64" />
      <path
         id="use66"
         d="m 102.697,202.618 h -0.417 l -0.166,-0.593 h -0.759 l -0.157,0.593 h -0.407 l 0.74,-2.612 h 0.406 z m -0.706,-1.033 -0.262,-0.969 -0.257,0.969 z" />
      <path
         d="m 104.754,201.658 0.372,0.162 q -0.086,0.428 -0.285,0.636 -0.198,0.207 -0.504,0.207 -0.378,0 -0.622,-0.355 -0.244,-0.356 -0.244,-0.973 0,-0.652 0.245,-1.012 0.245,-0.362 0.644,-0.362 0.349,0 0.566,0.283 0.13,0.167 0.194,0.481 l -0.38,0.125 q -0.034,-0.203 -0.141,-0.321 -0.106,-0.118 -0.259,-0.118 -0.211,0 -0.343,0.208 -0.131,0.208 -0.131,0.675 0,0.495 0.13,0.705 0.13,0.21 0.337,0.21 0.153,0 0.263,-0.134 0.11,-0.134 0.158,-0.42 z m -0.806,1.678 v -0.21 q 0.133,0.02 0.245,0.02 0.115,0 0.171,-0.057 0.043,-0.043 0.043,-0.11 0,-0.061 -0.04,-0.105 -0.04,-0.045 -0.124,-0.045 -0.083,0 -0.17,0.036 l 0.034,-0.176 q 0.101,-0.048 0.218,-0.048 0.162,0 0.246,0.098 0.084,0.098 0.084,0.239 0,0.157 -0.093,0.255 -0.126,0.134 -0.36,0.134 -0.167,0 -0.253,-0.028 z"
         id="path68" />
      <path
         id="use70"
         d="m 107.168,202.618 h -0.417 l -0.166,-0.593 h -0.759 l -0.157,0.593 h -0.407 l 0.74,-2.612 h 0.406 z m -0.706,-1.033 -0.262,-0.969 -0.257,0.969 z" />
      <path
         d="m 107.377,202.618 v -2.612 h 0.383 v 1.16 l 0.775,-1.16 h 0.516 l -0.715,1.017 0.754,1.594 h -0.496 l -0.522,-1.226 -0.311,0.436 v 0.789 z"
         id="path72" />
      <path
         id="use74"
         d="m 109.715,202.618 v -2.17 h -0.564 v -0.442 h 1.509 v 0.442 h -0.562 v 2.17 z" />
      <path
         d="m 110.897,202.618 v -2.612 h 0.384 v 2.612 z"
         id="path76" />
      <path
         id="use78"
         d="m 112.382,200.007 h 0.701 q 0.237,0 0.361,0.05 0.167,0.068 0.286,0.241 0.119,0.173 0.181,0.424 0.062,0.249 0.062,0.616 0,0.322 -0.058,0.556 -0.071,0.285 -0.203,0.461 -0.1,0.134 -0.269,0.208 -0.127,0.055 -0.339,0.055 h -0.722 z m 0.384,0.442 v 1.73 h 0.286 q 0.161,0 0.232,-0.025 0.093,-0.032 0.154,-0.109 0.062,-0.077 0.101,-0.251 0.039,-0.176 0.039,-0.479 0,-0.303 -0.039,-0.465 -0.039,-0.162 -0.109,-0.253 -0.07,-0.091 -0.178,-0.123 -0.08,-0.025 -0.315,-0.025 z" />
      <path
         d="m 114.3,202.618 v -2.612 h 0.384 v 1.028 h 0.751 v -1.028 h 0.383 v 2.612 h -0.383 v -1.142 h -0.751 v 1.142 z"
         id="path80" />
      <path
         id="use82"
         d="m 117.928,202.618 h -0.417 l -0.166,-0.593 h -0.759 l -0.157,0.593 h -0.407 l 0.74,-2.612 h 0.406 z m -0.706,-1.033 -0.262,-0.969 -0.257,0.969 z" />
      <path
         d="m 118.133,202.618 v -2.612 h 0.807 q 0.304,0 0.442,0.071 0.139,0.069 0.222,0.249 0.083,0.18 0.083,0.412 0,0.294 -0.126,0.486 -0.126,0.191 -0.376,0.24 0.124,0.1 0.205,0.219 0.082,0.119 0.219,0.424 l 0.232,0.509 h -0.459 l -0.277,-0.568 q -0.148,-0.305 -0.202,-0.383 -0.054,-0.08 -0.115,-0.109 -0.061,-0.03 -0.193,-0.03 h -0.078 v 1.09 z m 0.384,-1.507 h 0.284 q 0.276,0 0.345,-0.032 0.069,-0.032 0.108,-0.11 0.039,-0.078 0.039,-0.196 0,-0.132 -0.052,-0.212 -0.051,-0.082 -0.144,-0.103 -0.047,-0.009 -0.28,-0.009 h -0.299 z m 1.526,1.507 v -2.612 h 0.574 l 0.345,1.781 0.341,-1.781 h 0.575 v 2.612 h -0.356 v -2.056 l -0.377,2.056 h -0.369 l -0.376,-2.056 v 2.056 z"
         id="path84" />
      <path
         id="use86"
         d="m 123.971,202.618 h -0.417 l -0.166,-0.593 h -0.759 l -0.157,0.593 h -0.407 l 0.74,-2.612 h 0.406 z m -0.706,-1.033 -0.262,-0.969 -0.257,0.969 z" />
    </g>
  </g>
  <g
     id="g2087">
    <g
       stroke-width="0.259"
       transform="matrix(1,0,-0.204874,0.978788,-57.686,-117.283)"
       stroke="#000000"
       class="X d k"
       id="g122">
      <path
         id="use90"
         d="m 127.296,198.229 h 2.305 v 1.19 h -2.305 z"
         style="opacity:0.998;" />
      <path
         id="use92"
         d="m 129.601,198.229 h 2.305 v 1.19 h -2.305 z"
         style="opacity:0.998;" />
      <path
         id="use94"
         d="m 131.906,198.229 h 2.305 v 1.19 h -2.305 z"
         style="opacity:0.998;" />
      <path
         id="use96"
         d="m 134.21,198.229 h 2.305 v 1.19 h -2.305 z"
         style="opacity:0.998;" />
      <path
         id="use98"
         d="m 136.515,198.229 h 2.305 v 1.19 h -2.305 z"
         style="opacity:0.998;" />
      <path
         id="use100"
         d="m 138.82,198.229 h 2.305 v 1.19 h -2.305 z"
         style="opacity:0.998;" />
      <path
         id="use102"
         d="m 141.125,198.229 h 2.305 v 1.19 h -2.305 z"
         style="opacity:0.998;" />
      <path
         id="use104"
         d="m 143.429,198.229 h 2.305 v 1.19 h -2.305 z"
         style="opacity:0.998;" />
      <path
         id="use106"
         d="m 145.734,198.229 h 2.305 v 1.19 h -2.305 z"
         style="opacity:0.998;" />
      <path
         id="use108"
         d="m 148.039,198.229 h 2.305 v 1.19 h -2.305 z"
         style="opacity:0.998;" />
      <path
         id="use110"
         d="m 150.343,198.229 h 2.305 v 1.19 h -2.305 z"
         style="opacity:0.998;" />
      <path
         id="use112"
         d="m 152.648,198.229 h 2.305 v 1.19 h -2.305 z"
         style="opacity:0.998;" />
      <path
         id="use114"
         d="m 154.953,198.229 h 2.305 v 1.19 h -2.305 z"
         style="opacity:0.998;" />
      <path
         id="use116"
         d="m 157.258,198.229 h 2.305 v 1.19 h -2.305 z"
         style="opacity:0.998;" />
      <path
         id="use118"
         d="m 159.562,198.229 h 2.305 v 1.19 h -2.305 z"
         style="opacity:0.998;" />
      <path
         id="use120"
         d="m 161.867,198.229 h 2.305 v 1.19 h -2.305 z"
         style="opacity:0.998;" />
    </g>
    <g
       class="j"
       id="g128"
       transform="translate(-57.686,-117.283)">
      <path
         d="m 105,182.751 c -7.26,0.023 -13.582,3.149 -18.269,9.253 -0.467,-0.745 -1.781,-1.604 -3.14,-0.912 -3.223,1.643 -1.002,6.819 2.569,4.486 5.229,-3.416 10.906,-8.131 18.84,-8.131 7.934,0 13.61,4.715 18.839,8.131 3.571,2.333 5.792,-2.843 2.569,-4.486 -1.359,-0.693 -2.673,0.167 -3.14,0.912 -4.686,-6.103 -11.008,-9.23 -18.268,-9.253 z"
         stroke-width="0.256"
         class="i"
         id="path124" />
      <path
         d="m 100.894,183.112 1.701,4.481 m -0.85,-2.24 c 1.363,-0.981 3.903,-0.337 3.878,2.104 m 2.287,-4.525 -2.287,4.525 m 4.267,-4.191 -2.473,4.329"
         stroke-width="0.556"
         class="l"
         id="path126" />
    </g>
    <path
       d="m 25.838,75.146 c -0.543,0.663 -0.554,1.871 0.236,2.341 0.919,0.327 1.774,-0.331 2.505,-0.803 3.454,-3.368 7.198,-6.291 11.641,-6.898 1.047,-0.143 2.022,-0.704 2.919,-1.211 0.469,-0.722 -0.438,-2.101 -1.297,-1.516 -5.154,1.46 -7.987,3.767 -11.564,7.24 -0.707,0.661 -1.159,1.647 -2.152,1.945 -0.658,0.192 -2.257,0.77 -2.286,-0.313 0.153,-0.875 0.961,-0.708 1.206,-0.145 0.698,-0.693 -0.843,-1.758 -1.209,-0.639 z m 42.991,0.041 c 0.543,0.675 0.554,1.884 -0.236,2.335 -0.919,0.305 -1.774,-0.372 -2.505,-0.861 -3.454,-3.448 -7.198,-6.458 -11.641,-7.169 -0.768,-0.123 -1.498,-0.47 -2.186,-0.854 -0.395,-0.552 0.081,-1.652 1.236,-1.696 4.735,1.577 7.474,3.895 10.892,7.294 0.707,0.677 1.159,1.674 2.152,1.995 0.658,0.207 2.257,0.822 2.286,-0.26 -0.153,-0.879 -0.961,-0.731 -1.206,-0.173 -0.698,-0.709 0.843,-1.738 1.209,-0.611 z m -24.534,-8.86 c 0.773,-0.058 1.536,-0.283 2.317,-0.183 0.616,0.052 1.303,-0.217 1.873,0.07 0.386,0.44 -0.007,1.048 -0.207,1.484 -0.481,0.47 -0.544,-0.735 -1.116,-0.63 -0.609,-0.082 -1.227,0.025 -1.84,-0.031 -0.368,-0.079 -1.124,0.178 -1.05,-0.43 l 0.024,-0.279 z m 1.157,1.91 c 0.055,0.59 0.451,1.246 1.121,0.884 0.237,-0.387 -0.54,-0.946 -0.969,-0.927 l -0.077,0.016 z m 5.116,-1.858 c -0.597,0.765 -0.859,1.73 -1.385,2.533 -0.371,0.22 -0.417,1.141 0.111,0.628 0.142,-0.619 0.349,-1.211 0.724,-1.737 0.077,-0.431 1.025,-1.125 0.55,-1.424 z"
       fill="#ffe973"
       id="path130" />
    <path
       d="m 39.673,72.637 a 1.66,1.66 0 0 0 -1.655,1.653 1.66,1.66 0 0 0 1.655,1.655 1.66,1.66 0 0 0 1.653,-1.655 c 0,-0.91 -0.743,-1.653 -1.653,-1.653 z m 0,0.56 a 1.093,1.093 0 1 1 0,2.186 1.093,1.093 0 1 1 0,-2.186 z m 3.602,-1.062 c -1.04,0 -1.89,0.85 -1.89,1.89 0,1.04 0.85,1.89 1.89,1.89 1.04,0 1.89,-0.85 1.89,-1.89 0,-1.04 -0.85,-1.89 -1.89,-1.89 z m 0,0.562 c 0.737,0 1.328,0.591 1.328,1.328 0,0.737 -0.591,1.33 -1.328,1.33 -0.737,0 -1.33,-0.593 -1.33,-1.33 0,-0.737 0.593,-1.328 1.33,-1.328 z m 4.039,-0.991 c -1.152,0 -2.092,0.94 -2.092,2.092 0,1.152 0.94,2.092 2.092,2.092 1.152,0 2.092,-0.94 2.092,-2.092 0,-1.152 -0.94,-2.092 -2.092,-2.092 z m 0,0.562 c 0.849,0 1.53,0.682 1.53,1.53 a 1.53,1.53 0 0 1 -1.53,1.532 c -0.848,0 -1.53,-0.683 -1.53,-1.532 0,-0.849 0.682,-1.53 1.53,-1.53 z m 7.641,0.369 a 1.66,1.66 0 0 1 1.655,1.653 1.66,1.66 0 0 1 -1.655,1.655 1.66,1.66 0 0 1 -1.653,-1.655 c 0,-0.91 0.743,-1.653 1.653,-1.653 z m 0,0.56 a 1.093,1.093 0 1 0 0,2.186 1.093,1.093 0 1 0 0,-2.186 z m -3.602,-1.062 c 1.04,0 1.89,0.85 1.89,1.89 0,1.04 -0.85,1.89 -1.89,1.89 -1.04,0 -1.89,-0.85 -1.89,-1.89 0,-1.04 0.85,-1.89 1.89,-1.89 z m 0,0.562 c -0.737,0 -1.328,0.591 -1.328,1.328 0,0.737 0.591,1.33 1.328,1.33 0.737,0 1.33,-0.593 1.33,-1.33 0,-0.737 -0.593,-1.328 -1.33,-1.328 z"
       opacity="0.997"
       stroke-width="0.1"
       class="X i j k"
       id="path132" />
  </g>
  <g
     id="g1956">
    <g
       class="j m"
       id="g500"
       transform="translate(-57.686,-117.283)">
      <path
         id="use492"
         d="m 94.205,137.91 c -0.085,1.035 -0.423,2.072 -0.182,3.111 0.28,0.652 -0.424,1.005 -0.547,1.575 -0.309,0.672 -0.442,1.428 -0.547,2.171 -0.132,0.707 -0.437,1.366 -0.696,2.032 -0.426,0.469 -0.579,1.034 -0.958,1.512 -0.479,0.206 -1.033,0.039 -1.546,0.087 -0.842,-0.006 -1.687,0.041 -2.518,-0.124 -0.595,-0.118 -1.218,-0.083 -1.797,-0.26 -0.677,-0.188 -0.509,-1.101 -0.688,-1.437 -0.705,-0.061 -1.763,0.624 -2.115,-0.362 -0.044,-0.783 -0.745,-0.991 -1.375,-0.683 -0.56,0.176 -1.497,1.023 -1.918,0.342 a 6.32,6.32 0 0 1 0.035,-1.967 c 0.142,-0.606 0.611,-1.153 1.242,-1.26 0.94,-0.496 -0.418,-1.135 -0.565,-1.723 -0.386,-0.783 -0.036,-1.669 0.375,-2.364 0.69,-0.2 1.419,0.054 2.108,0.125 0.646,0.355 1.205,-0.131 1.757,-0.401 0.725,-0.242 1.498,-0.043 2.246,-0.109 0.757,0.072 1.496,0.177 2.236,0.365 0.717,0.06 1.152,-0.654 1.72,-0.973 0.475,-0.151 1.007,0.082 1.498,0.136 0.595,0.169 1.22,-0.073 1.798,0.168 a 1.14,1.14 0 0 0 0.437,0.039 z"
         style="fill:#ffd700;" />
      <g
         class="l p"
         id="g498">
        <path
           d="m 80.922,142.218 12.329,0.973 m -9.827,-2.429 0.925,1.727 -1.042,1.642"
           id="path494" />
        <path
           d="m 85.459,140.762 0.882,1.884 -1.139,2.046 m 1.59,0.234 1.312,-2.141 -0.985,-2.023"
           id="path496" />
      </g>
    </g>
    <g
       class="j m"
       id="g516"
       transform="translate(-57.686,-117.283)">
      <path
         id="use502"
         d="m 90.867,154.986 c 0.301,0 0.649,0.062 1.191,0 0.542,-0.062 0.924,-1.051 1.058,-1.588 v 0 c 0.194,-1.164 -0.413,-2.167 -1.283,-2.962 -1.59,-1.453 -0.525,-3.268 -1.451,-4.985 -0.982,-1.82 0.037,-4.143 1.749,-5.378 1.651,-1.19 3.13,-1.904 4.153,-3.875 1.198,-0.3 0.768,3.129 0.715,4.17 1.028,1.289 1.805,1.853 1.323,3.685 1.002,2.006 0.066,4.362 -0.223,6.223 -0.373,0.288 -0.736,-0.126 -0.931,0.303 -0.442,0.971 -0.144,2.258 -1.488,2.143 -0.469,1.162 -0.004,2.677 -1.016,3.885 -5.257,7.058 -17.862,9.784 -18.266,20.776 -0.419,4.583 2.246,11.698 7.072,7.58 0.875,-0.747 0.3,-2.126 -0.64,-2.364 -0.755,-0.192 -1.762,0.553 -2.314,1.447 -1.258,-1.533 1.96,-2.016 0.501,-2.525 -2.111,0.627 -3.607,-2.056 -2.13,-3.62 1.308,-1.623 0.776,1.229 2.009,1.32 2.283,0.247 3.702,2.022 4.064,4.205 1.104,-0.355 0.751,-3.719 1.014,-5.29 l 1.521,-0.099 -1.191,5.854 c 2.32,-0.083 3.201,-1.231 3.142,-3.076 2.907,0.146 2.726,1.555 1.786,3.274 0.827,1.975 -0.651,2.46 -1.158,3.572 -0.11,-1.414 -1.668,-5.083 -6.846,0.992 -1.809,0.7 -1.643,2.278 -6.284,1.72 -1.191,0.313 -2.381,0.203 -3.572,-0.099 -1.131,-0.594 -1.392,-2.044 -2.42,-2.593 -0.665,-1.191 -0.943,-2.486 -1.467,-3.681 -0.882,-1.198 -1.221,-2.681 -1.14,-4.156 0.281,-1.986 -0.685,-3.852 -0.901,-5.797 0.003,-1.448 0.13,-2.94 0.481,-4.33 0.685,-1.609 0.155,-3.313 0.344,-4.976 0.237,-1.412 0.292,-3.365 1.861,-3.966 1.61,-0.548 3.81,0.542 5.149,-0.771 0.656,-1.653 2.195,-2.575 3.805,-2.993 1.449,-0.411 2.508,-1.618 4.051,-1.745 1.257,-0.266 2.548,-0.363 3.831,-0.281 z"
         style="fill:#ffd700;" />
      <g
         class="l p"
         id="g512">
        <path
           id="use504"
           d="m 80.515,156.342 c -1.334,3.32 5.631,1.397 8.538,2.12" />
        <path
           id="use506"
           d="m 75.277,160.005 c -0.016,1.145 -0.778,2.019 -1.403,2.877 -0.068,0.988 -0.472,1.785 -1.354,2.23 -0.435,1.053 -0.04,2.302 -0.756,3.288 -0.589,1.042 -0.119,2.217 -0.206,3.334 l -0.014,2.62 c -0.505,1.274 -0.413,2.608 -0.267,3.907 -0.046,1.57 0.46,3.148 0.077,4.699 -0.042,1.06 0.459,2.06 1.084,2.879 0.663,0.758 0.451,1.931 1.44,2.482 0.458,0.947 1.315,1.512 2.336,1.744 l 0.726,0.31" />
        <path
           id="use508"
           d="m 84.35,187.429 c -1.666,-0.003 -3.3,1.377 -4.936,0.515 -1.22,-0.83 -2.823,-1.377 -3.425,-2.843 -0.359,-1.187 -1.447,-2.064 -1.468,-3.355 0.104,-2.219 -0.33,-4.514 0.46,-6.655 0.486,-2.037 1.191,-4.034 2.433,-5.742 l 2.325,-3.28 c 2.546,-3.004 3.929,-3.662 7.265,-5.854 0.965,-0.634 1.778,-1.411 2.523,-2.287 1.067,-0.783 1.646,-2.056 2.563,-2.985 0.106,-0.117 0.296,-0.032 0.297,0.109" />
        <path
           d="m 95.762,147.181 1.405,3.399 m -0.479,-6.078 1.914,3.294 m -5.652,1.535 1.091,-0.86 m -2.017,-0.728 1.72,-0.265 m -2.183,-2.083 2.282,-0.099 m -2.149,-1.819 1.588,0.265 m -0.365,-2.018 1.124,1.025 m -0.462,-2.513 1.455,1.389 m -0.165,-2.381 0.761,1.058 m -18.076,48.613 2.574,-0.725 m -5.052,-0.445 3.061,-0.57 m -4.278,-0.996 2.662,-0.224 m -4.275,-1.413 3.364,-0.284 m -3.481,-1.517 2.601,-0.04 m -2.601,-1.597 2.408,0.072 m -2.502,-2.294 2.463,0.092 m -2.346,-1.472 2.364,0.039 m -2.036,-1.699 2.273,10e-4 m -2.086,-1.849 2.581,0.069 m -2.324,-1.846 2.881,0.155 m -2.881,-2.026 3.746,0.167 m -3.115,-2.084 3.11,-0.023 m -2.899,-1.895 3.718,0.047 m -2.736,-1.614 4.467,-0.023 m -3.672,-1.614 4.724,0.094 m -4.116,-1.871 7.489,0.104 m -6.226,-1.601 7.484,0.07 m -16.368,3.002 3.088,0.117 m -3.35,1.52 2.854,0.133 m -2.845,2.224 2.68,-0.108 m -2.717,1.506 2.32,-0.083 m -2.636,1.304 3.539,0.051 m -3.916,2.153 4.012,-0.188 m -4.116,2.314 2.423,-0.012 m -1.968,2.18 1.77,-0.063 m -1.445,1.414 1.775,-0.091 m -1.603,1.621 2.909,0.083 m -2.932,1.853 1.626,0.015 m -1.056,2.046 2.414,-0.135 m -1.872,1.042 1.994,-0.008 m -1.215,2.127 2.177,-0.281 m -1.489,1.843 2.254,-0.101"
           id="path510" />
      </g>
      <path
         id="use514"
         d="m 87.494,149.977 c 4.245,-0.751 0.167,2.705 1.422,5.009 -1.22,-0.654 -3.698,-4.607 -1.422,-5.009 z"
         style="fill:#ffd700;stroke-linejoin:round;" />
    </g>
    <path
       id="use518"
       d="m 30.105,55.629 c -0.946,0.057 -1.878,0.267 -2.797,0.484 -0.371,0.202 -0.799,0.15 -1.181,0.293 -0.492,0.16 -1.032,0.106 -1.503,0.316 -0.488,0.204 -0.898,0.579 -0.683,1.149 0.113,0.478 0.804,0.459 0.905,0.949 -0.057,0.456 0.066,0.906 0.181,1.346 0.043,0.446 0.326,0.923 0.831,0.896 0.414,0.053 0.821,-0.152 1.095,-0.441 0.151,-0.344 0.515,-0.286 0.451,0.113 0.068,0.409 0.306,0.986 0.81,0.926 0.402,-0.155 0.741,-0.023 0.963,0.333 0.368,0.253 0.669,0.652 1.14,0.704 0.468,0.065 1.051,0.109 1.227,-0.456 0.261,-0.328 0.299,-0.755 0.498,-1.112 0.271,-0.445 0.108,-0.992 0.143,-1.482 0.021,-0.541 -0.212,-1.034 -0.512,-1.467 -0.386,-0.459 -0.594,-1.03 -0.968,-1.498 -0.168,-0.155 0.176,-0.021 -0.099,-0.229 -0.237,-0.229 -0.302,-0.57 -0.502,-0.824 z"
       style="fill:#ffd700;stroke:#b09500;stroke-width:0.529;" />
    <path
       id="use520"
       d="m 29.675,56.985 c -1.726,0.342 -2.729,0.684 -3.77,1.025 0.73,0.143 1.596,0.287 1.654,0.43 0.079,0.448 -0.44,0.673 -1.058,0.86 0.772,-0.022 0.654,-0.341 2.315,-0.066 l 0.198,1.191 c 0.143,-0.459 0.169,-0.964 0.728,-1.257 0.994,0.236 1.086,0.923 1.224,1.588 -0.301,-1.18 1.122,-1.339 -1.29,-3.77 z"
       style="fill:#b09500;" />
  </g>
  <g
     id="g1587">
    <path
       d="m 47.314,20.965 3.111,2.261 -1.188,3.658 h -3.846 l -1.188,-3.658 z"
       class="b k"
       id="path134" />
    <path
       d="m 47.314,21.783 -0.551,1.696 h -1.782 l 1.442,1.047 -0.551,1.696 1.442,-1.048 1.442,1.048 -0.551,-1.696 1.442,-1.047 h -1.782 z"
       class="Y b k"
       id="path136" />
    <path
       d="m 47.314,21.783 v 2.454 l -0.551,-0.758 h -1.782 l 2.333,0.758 -0.891,0.289 -0.551,1.696 1.442,-1.985 v 0.937 l 1.442,1.048 -1.442,-1.985 0.891,0.289 1.442,-1.047 -2.333,0.758 0.551,-0.758 z"
       class="Z b k"
       id="path138" />
    <g
       id="g1289">
      <g
         transform="matrix(-0.578735,-0.043746,-0.042045,0.669084,154.87086,-103.93677)"
         id="g158">
        <path
           id="use150"
           d="m 173.937,207.522 c -0.826,0.602 -0.675,1.105 -0.737,1.629 0.356,-0.433 0.777,-0.8 0.737,-1.629 z m -0.572,1.677 -0.197,0.008 c 0.406,0.659 0.972,0.922 1.691,0.805 -0.459,-0.296 -0.567,-0.818 -1.494,-0.813 z"
           style="fill:#f5c742;stroke:#a07843;stroke-width:0.132;stroke-linejoin:round;" />
        <g
           class="Z"
           id="g156">
          <path
             id="use152"
             d="m 173.653,209.369 c 0.388,0.014 0.513,0.217 0.692,0.381 -0.294,-0.087 -0.563,-0.189 -0.692,-0.381 z" />
          <path
             id="use154"
             d="m 173.404,208.519 c 0.007,-0.388 0.207,-0.517 0.368,-0.699 -0.081,0.296 -0.179,0.567 -0.368,0.699 z" />
        </g>
      </g>
      <g
         transform="matrix(-0.57433,-0.090811,-0.082744,0.664335,162.16998,-94.942154)"
         id="g168">
        <path
           id="use160"
           d="m 173.937,207.522 c -0.826,0.602 -0.675,1.105 -0.737,1.629 0.356,-0.433 0.777,-0.8 0.737,-1.629 z m -0.572,1.677 -0.197,0.008 c 0.406,0.659 0.972,0.922 1.691,0.805 -0.459,-0.296 -0.567,-0.818 -1.494,-0.813 z"
           style="fill:#f5c742;stroke:#a07843;stroke-width:0.132;stroke-linejoin:round;" />
        <g
           class="Z"
           id="g166">
          <path
             id="use162"
             d="m 173.653,209.369 c 0.388,0.014 0.513,0.217 0.692,0.381 -0.294,-0.087 -0.563,-0.189 -0.692,-0.381 z" />
          <path
             id="use164"
             d="m 173.404,208.519 c 0.007,-0.388 0.207,-0.517 0.368,-0.699 -0.081,0.296 -0.179,0.567 -0.368,0.699 z" />
        </g>
      </g>
      <g
         transform="matrix(-0.563328,-0.147255,-0.141968,0.653538,172.2316,-83.156266)"
         id="g178">
        <path
           id="use170"
           d="m 173.937,207.522 c -0.826,0.602 -0.675,1.105 -0.737,1.629 0.356,-0.433 0.777,-0.8 0.737,-1.629 z m -0.572,1.677 -0.197,0.008 c 0.406,0.659 0.972,0.922 1.691,0.805 -0.459,-0.296 -0.567,-0.818 -1.494,-0.813 z"
           style="fill:#f5c742;stroke:#a07843;stroke-width:0.132;stroke-linejoin:round;" />
        <g
           class="Z"
           id="g176">
          <path
             id="use172"
             d="m 173.653,209.369 c 0.388,0.014 0.513,0.217 0.692,0.381 -0.294,-0.087 -0.563,-0.189 -0.692,-0.381 z" />
          <path
             id="use174"
             d="m 173.404,208.519 c 0.007,-0.388 0.207,-0.517 0.368,-0.699 -0.081,0.296 -0.179,0.567 -0.368,0.699 z" />
        </g>
      </g>
      <g
         transform="matrix(-0.545989,-0.222451,-0.196463,0.632537,180.20038,-66.015609)"
         id="g188">
        <path
           id="use180"
           d="m 173.937,207.522 c -0.826,0.602 -0.675,1.105 -0.737,1.629 0.356,-0.433 0.777,-0.8 0.737,-1.629 z m -0.572,1.677 -0.197,0.008 c 0.406,0.659 0.972,0.922 1.691,0.805 -0.459,-0.296 -0.567,-0.818 -1.494,-0.813 z"
           style="fill:#f5c742;stroke:#a07843;stroke-width:0.132;stroke-linejoin:round;" />
        <g
           class="Z"
           id="g186">
          <path
             id="use182"
             d="m 173.653,209.369 c 0.388,0.014 0.513,0.217 0.692,0.381 -0.294,-0.087 -0.563,-0.189 -0.692,-0.381 z" />
          <path
             id="use184"
             d="m 173.404,208.519 c 0.007,-0.388 0.207,-0.517 0.368,-0.699 -0.081,0.296 -0.179,0.567 -0.368,0.699 z" />
        </g>
      </g>
      <g
         transform="matrix(-0.499547,-0.308735,-0.259727,0.595693,184.98742,-43.639668)"
         id="g198">
        <path
           id="use190"
           d="m 173.937,207.522 c -0.826,0.602 -0.675,1.105 -0.737,1.629 0.356,-0.433 0.777,-0.8 0.737,-1.629 z m -0.572,1.677 -0.197,0.008 c 0.406,0.659 0.972,0.922 1.691,0.805 -0.459,-0.296 -0.567,-0.818 -1.494,-0.813 z"
           style="fill:#f5c742;stroke:#a07843;stroke-width:0.132;stroke-linejoin:round;" />
        <g
           class="Z"
           id="g196">
          <path
             id="use192"
             d="m 173.653,209.369 c 0.388,0.014 0.513,0.217 0.692,0.381 -0.294,-0.087 -0.563,-0.189 -0.692,-0.381 z" />
          <path
             id="use194"
             d="m 173.404,208.519 c 0.007,-0.388 0.207,-0.517 0.368,-0.699 -0.081,0.296 -0.179,0.567 -0.368,0.699 z" />
        </g>
      </g>
      <g
         transform="matrix(-0.464997,-0.37326,-0.311259,0.557699,189.4484,-24.879293)"
         id="g208">
        <path
           id="use200"
           d="m 173.937,207.522 c -0.826,0.602 -0.675,1.105 -0.737,1.629 0.356,-0.433 0.777,-0.8 0.737,-1.629 z m -0.572,1.677 -0.197,0.008 c 0.406,0.659 0.972,0.922 1.691,0.805 -0.459,-0.296 -0.567,-0.818 -1.494,-0.813 z"
           style="fill:#f5c742;stroke:#a07843;stroke-width:0.132;stroke-linejoin:round;" />
        <g
           class="Z"
           id="g206">
          <path
             id="use202"
             d="m 173.653,209.369 c 0.388,0.014 0.513,0.217 0.692,0.381 -0.294,-0.087 -0.563,-0.189 -0.692,-0.381 z" />
          <path
             id="use204"
             d="m 173.404,208.519 c 0.007,-0.388 0.207,-0.517 0.368,-0.699 -0.081,0.296 -0.179,0.567 -0.368,0.699 z" />
        </g>
      </g>
      <g
         transform="matrix(-0.417436,-0.398325,-0.335645,0.502422,186.00384,-9.43196)"
         id="g218">
        <path
           id="use210"
           d="m 173.937,207.522 c -0.826,0.602 -0.675,1.105 -0.737,1.629 0.356,-0.433 0.777,-0.8 0.737,-1.629 z m -0.572,1.677 -0.197,0.008 c 0.406,0.659 0.972,0.922 1.691,0.805 -0.459,-0.296 -0.567,-0.818 -1.494,-0.813 z"
           style="fill:#f5c742;stroke:#a07843;stroke-width:0.132;stroke-linejoin:round;" />
        <g
           class="Z"
           id="g216">
          <path
             id="use212"
             d="m 173.653,209.369 c 0.388,0.014 0.513,0.217 0.692,0.381 -0.294,-0.087 -0.563,-0.189 -0.692,-0.381 z" />
          <path
             id="use214"
             d="m 173.404,208.519 c 0.007,-0.388 0.207,-0.517 0.368,-0.699 -0.081,0.296 -0.179,0.567 -0.368,0.699 z" />
        </g>
      </g>
      <g
         transform="matrix(-0.375874,-0.450156,-0.38195,0.456239,188.24629,8.75263)"
         id="g228">
        <path
           id="use220"
           d="m 173.937,207.522 c -0.826,0.602 -0.675,1.105 -0.737,1.629 0.356,-0.433 0.777,-0.8 0.737,-1.629 z m -0.572,1.677 -0.197,0.008 c 0.406,0.659 0.972,0.922 1.691,0.805 -0.459,-0.296 -0.567,-0.818 -1.494,-0.813 z"
           style="fill:#f5c742;stroke:#a07843;stroke-width:0.132;stroke-linejoin:round;" />
        <g
           class="Z"
           id="g226">
          <path
             id="use222"
             d="m 173.653,209.369 c 0.388,0.014 0.513,0.217 0.692,0.381 -0.294,-0.087 -0.563,-0.189 -0.692,-0.381 z" />
          <path
             id="use224"
             d="m 173.404,208.519 c 0.007,-0.388 0.207,-0.517 0.368,-0.699 -0.081,0.296 -0.179,0.567 -0.368,0.699 z" />
        </g>
      </g>
      <g
         transform="matrix(-0.31138,-0.46719,-0.414562,0.373006,183.6769,28.63902)"
         id="g238">
        <path
           id="use230"
           d="m 173.937,207.522 c -0.826,0.602 -0.675,1.105 -0.737,1.629 0.356,-0.433 0.777,-0.8 0.737,-1.629 z m -0.572,1.677 -0.197,0.008 c 0.406,0.659 0.972,0.922 1.691,0.805 -0.459,-0.296 -0.567,-0.818 -1.494,-0.813 z"
           style="fill:#f5c742;stroke:#a07843;stroke-width:0.132;stroke-linejoin:round;" />
        <g
           class="Z"
           id="g236">
          <path
             id="use232"
             d="m 173.653,209.369 c 0.388,0.014 0.513,0.217 0.692,0.381 -0.294,-0.087 -0.563,-0.189 -0.692,-0.381 z" />
          <path
             id="use234"
             d="m 173.404,208.519 c 0.007,-0.388 0.207,-0.517 0.368,-0.699 -0.081,0.296 -0.179,0.567 -0.368,0.699 z" />
        </g>
      </g>
      <g
         transform="matrix(-0.250671,-0.513913,-0.455671,0.301794,181.61801,51.14609)"
         id="g248">
        <path
           id="use240"
           d="m 173.937,207.522 c -0.826,0.602 -0.675,1.105 -0.737,1.629 0.356,-0.433 0.777,-0.8 0.737,-1.629 z m -0.572,1.677 -0.197,0.008 c 0.406,0.659 0.972,0.922 1.691,0.805 -0.459,-0.296 -0.567,-0.818 -1.494,-0.813 z"
           style="fill:#f5c742;stroke:#a07843;stroke-width:0.132;stroke-linejoin:round;" />
        <g
           class="Z"
           id="g246">
          <path
             id="use242"
             d="m 173.653,209.369 c 0.388,0.014 0.513,0.217 0.692,0.381 -0.294,-0.087 -0.563,-0.189 -0.692,-0.381 z" />
          <path
             id="use244"
             d="m 173.404,208.519 c 0.007,-0.388 0.207,-0.517 0.368,-0.699 -0.081,0.296 -0.179,0.567 -0.368,0.699 z" />
        </g>
      </g>
      <g
         transform="matrix(-0.177345,-0.553648,-0.490548,0.215599,176.09154,75.56776)"
         id="g258">
        <path
           id="use250"
           d="m 173.937,207.522 c -0.826,0.602 -0.675,1.105 -0.737,1.629 0.356,-0.433 0.777,-0.8 0.737,-1.629 z m -0.572,1.677 -0.197,0.008 c 0.406,0.659 0.972,0.922 1.691,0.805 -0.459,-0.296 -0.567,-0.818 -1.494,-0.813 z"
           style="fill:#f5c742;stroke:#a07843;stroke-width:0.132;stroke-linejoin:round;" />
        <g
           class="Z"
           id="g256">
          <path
             id="use252"
             d="m 173.653,209.369 c 0.388,0.014 0.513,0.217 0.692,0.381 -0.294,-0.087 -0.563,-0.189 -0.692,-0.381 z" />
          <path
             id="use254"
             d="m 173.404,208.519 c 0.007,-0.388 0.207,-0.517 0.368,-0.699 -0.081,0.296 -0.179,0.567 -0.368,0.699 z" />
        </g>
      </g>
      <g
         transform="matrix(-0.087536,-0.582305,-0.515561,0.109809,165.74505,102.11981)"
         id="g268">
        <path
           id="use260"
           d="m 173.937,207.522 c -0.826,0.602 -0.675,1.105 -0.737,1.629 0.356,-0.433 0.777,-0.8 0.737,-1.629 z m -0.572,1.677 -0.197,0.008 c 0.406,0.659 0.972,0.922 1.691,0.805 -0.459,-0.296 -0.567,-0.818 -1.494,-0.813 z"
           style="fill:#f5c742;stroke:#a07843;stroke-width:0.132;stroke-linejoin:round;" />
        <g
           class="Z"
           id="g266">
          <path
             id="use262"
             d="m 173.653,209.369 c 0.388,0.014 0.513,0.217 0.692,0.381 -0.294,-0.087 -0.563,-0.189 -0.692,-0.381 z" />
          <path
             id="use264"
             d="m 173.404,208.519 c 0.007,-0.388 0.207,-0.517 0.368,-0.699 -0.081,0.296 -0.179,0.567 -0.368,0.699 z" />
        </g>
      </g>
      <g
         transform="matrix(-0.026682,-0.590719,-0.522773,0.038004,156.80416,118.08584)"
         id="g278">
        <path
           id="use270"
           d="m 173.937,207.522 c -0.826,0.602 -0.675,1.105 -0.737,1.629 0.356,-0.433 0.777,-0.8 0.737,-1.629 z m -0.572,1.677 -0.197,0.008 c 0.406,0.659 0.972,0.922 1.691,0.805 -0.459,-0.296 -0.567,-0.818 -1.494,-0.813 z"
           style="fill:#f5c742;stroke:#a07843;stroke-width:0.132;stroke-linejoin:round;" />
        <g
           class="Z"
           id="g276">
          <path
             id="use272"
             d="m 173.653,209.369 c 0.388,0.014 0.513,0.217 0.692,0.381 -0.294,-0.087 -0.563,-0.189 -0.692,-0.381 z" />
          <path
             id="use274"
             d="m 173.404,208.519 c 0.007,-0.388 0.207,-0.517 0.368,-0.699 -0.081,0.296 -0.179,0.567 -0.368,0.699 z" />
        </g>
      </g>
      <g
         transform="matrix(0.018885,-0.592219,-0.486889,-0.026152,141.54348,131.28295)"
         id="g288">
        <path
           id="use280"
           d="m 173.937,207.522 c -0.826,0.602 -0.675,1.105 -0.737,1.629 0.356,-0.433 0.777,-0.8 0.737,-1.629 z m -0.572,1.677 -0.197,0.008 c 0.406,0.659 0.972,0.922 1.691,0.805 -0.459,-0.296 -0.567,-0.818 -1.494,-0.813 z"
           style="fill:#f5c742;stroke:#a07843;stroke-width:0.132;stroke-linejoin:round;" />
        <g
           class="Z"
           id="g286">
          <path
             id="use282"
             d="m 173.653,209.369 c 0.388,0.014 0.513,0.217 0.692,0.381 -0.294,-0.087 -0.563,-0.189 -0.692,-0.381 z" />
          <path
             id="use284"
             d="m 173.404,208.519 c 0.007,-0.388 0.207,-0.517 0.368,-0.699 -0.081,0.296 -0.179,0.567 -0.368,0.699 z" />
        </g>
      </g>
      <g
         transform="matrix(0.074231,-0.586842,-0.481198,-0.086914,130.9384,142.60587)"
         id="g298">
        <path
           id="use290"
           d="m 173.937,207.522 c -0.826,0.602 -0.675,1.105 -0.737,1.629 0.356,-0.433 0.777,-0.8 0.737,-1.629 z m -0.572,1.677 -0.197,0.008 c 0.406,0.659 0.972,0.922 1.691,0.805 -0.459,-0.296 -0.567,-0.818 -1.494,-0.813 z"
           style="fill:#f5c742;stroke:#a07843;stroke-width:0.132;stroke-linejoin:round;" />
        <g
           class="Z"
           id="g296">
          <path
             id="use292"
             d="m 173.653,209.369 c 0.388,0.014 0.513,0.217 0.692,0.381 -0.294,-0.087 -0.563,-0.189 -0.692,-0.381 z" />
          <path
             id="use294"
             d="m 173.404,208.519 c 0.007,-0.388 0.207,-0.517 0.368,-0.699 -0.081,0.296 -0.179,0.567 -0.368,0.699 z" />
        </g>
      </g>
      <g
         transform="matrix(0.14833,-0.56837,-0.464303,-0.168162,114.79811,155.93571)"
         id="g308">
        <path
           id="use300"
           d="m 173.937,207.522 c -0.826,0.602 -0.675,1.105 -0.737,1.629 0.356,-0.433 0.777,-0.8 0.737,-1.629 z m -0.572,1.677 -0.197,0.008 c 0.406,0.659 0.972,0.922 1.691,0.805 -0.459,-0.296 -0.567,-0.818 -1.494,-0.813 z"
           style="fill:#f5c742;stroke:#a07843;stroke-width:0.132;stroke-linejoin:round;" />
        <g
           class="Z"
           id="g306">
          <path
             id="use302"
             d="m 173.653,209.369 c 0.388,0.014 0.513,0.217 0.692,0.381 -0.294,-0.087 -0.563,-0.189 -0.692,-0.381 z" />
          <path
             id="use304"
             d="m 173.404,208.519 c 0.007,-0.388 0.207,-0.517 0.368,-0.699 -0.081,0.296 -0.179,0.567 -0.368,0.699 z" />
        </g>
      </g>
      <g
         transform="matrix(0.177551,-0.534237,-0.455038,-0.186527,108.10711,153.50402)"
         id="g318">
        <path
           id="use310"
           d="m 173.937,207.522 c -0.826,0.602 -0.675,1.105 -0.737,1.629 0.356,-0.433 0.777,-0.8 0.737,-1.629 z m -0.572,1.677 -0.197,0.008 c 0.406,0.659 0.972,0.922 1.691,0.805 -0.459,-0.296 -0.567,-0.818 -1.494,-0.813 z"
           style="fill:#f5c742;stroke:#a07843;stroke-width:0.132;stroke-linejoin:round;" />
        <g
           class="Z"
           id="g316">
          <path
             id="use312"
             d="m 173.653,209.369 c 0.388,0.014 0.513,0.217 0.692,0.381 -0.294,-0.087 -0.563,-0.189 -0.692,-0.381 z" />
          <path
             id="use314"
             d="m 173.404,208.519 c 0.007,-0.388 0.207,-0.517 0.368,-0.699 -0.081,0.296 -0.179,0.567 -0.368,0.699 z" />
        </g>
      </g>
      <g
         transform="matrix(0.230046,-0.499463,-0.41089,-0.261741,90.09391,162.90191)"
         id="g328">
        <path
           id="use320"
           d="m 173.937,207.522 c -0.826,0.602 -0.675,1.105 -0.737,1.629 0.356,-0.433 0.777,-0.8 0.737,-1.629 z m -0.572,1.677 -0.197,0.008 c 0.406,0.659 0.972,0.922 1.691,0.805 -0.459,-0.296 -0.567,-0.818 -1.494,-0.813 z"
           style="fill:#f5c742;stroke:#a07843;stroke-width:0.132;stroke-linejoin:round;" />
        <g
           class="Z"
           id="g326">
          <path
             id="use322"
             d="m 173.653,209.369 c 0.388,0.014 0.513,0.217 0.692,0.381 -0.294,-0.087 -0.563,-0.189 -0.692,-0.381 z" />
          <path
             id="use324"
             d="m 173.404,208.519 c 0.007,-0.388 0.207,-0.517 0.368,-0.699 -0.081,0.296 -0.179,0.567 -0.368,0.699 z" />
        </g>
      </g>
      <g
         transform="matrix(0.29063,-0.455671,-0.372847,-0.328738,72.00677,169.03343)"
         id="g338">
        <path
           id="use330"
           d="m 173.937,207.522 c -0.826,0.602 -0.675,1.105 -0.737,1.629 0.356,-0.433 0.777,-0.8 0.737,-1.629 z m -0.572,1.677 -0.197,0.008 c 0.406,0.659 0.972,0.922 1.691,0.805 -0.459,-0.296 -0.567,-0.818 -1.494,-0.813 z"
           style="fill:#f5c742;stroke:#a07843;stroke-width:0.132;stroke-linejoin:round;" />
        <g
           class="Z"
           id="g336">
          <path
             id="use332"
             d="m 173.653,209.369 c 0.388,0.014 0.513,0.217 0.692,0.381 -0.294,-0.087 -0.563,-0.189 -0.692,-0.381 z" />
          <path
             id="use334"
             d="m 173.404,208.519 c 0.007,-0.388 0.207,-0.517 0.368,-0.699 -0.081,0.296 -0.179,0.567 -0.368,0.699 z" />
        </g>
      </g>
      <g
         transform="matrix(0.2903,-0.45922,-0.373046,-0.33187,72.40628,170.10715)"
         id="g348">
        <path
           id="use340"
           d="m 173.937,207.522 c -0.826,0.602 -0.675,1.105 -0.737,1.629 0.356,-0.433 0.777,-0.8 0.737,-1.629 z m -0.572,1.677 -0.197,0.008 c 0.406,0.659 0.972,0.922 1.691,0.805 -0.459,-0.296 -0.567,-0.818 -1.494,-0.813 z"
           style="fill:#f5c742;stroke:#a07843;stroke-width:0.132;stroke-linejoin:round;" />
        <g
           class="Z"
           id="g346">
          <path
             id="use342"
             d="m 173.653,209.369 c 0.388,0.014 0.513,0.217 0.692,0.381 -0.294,-0.087 -0.563,-0.189 -0.692,-0.381 z" />
          <path
             id="use344"
             d="m 173.404,208.519 c 0.007,-0.388 0.207,-0.517 0.368,-0.699 -0.081,0.296 -0.179,0.567 -0.368,0.699 z" />
        </g>
      </g>
      <g
         transform="matrix(0.364922,-0.3817,-0.30597,-0.41341,45.79587,173.51969)"
         id="g358">
        <path
           id="use350"
           d="m 173.937,207.522 c -0.826,0.602 -0.675,1.105 -0.737,1.629 0.356,-0.433 0.777,-0.8 0.737,-1.629 z m -0.572,1.677 -0.197,0.008 c 0.406,0.659 0.972,0.922 1.691,0.805 -0.459,-0.296 -0.567,-0.818 -1.494,-0.813 z"
           style="fill:#f5c742;stroke:#a07843;stroke-width:0.133;stroke-linejoin:round;" />
        <g
           class="Z"
           id="g356">
          <path
             id="use352"
             d="m 173.653,209.369 c 0.388,0.014 0.513,0.217 0.692,0.381 -0.294,-0.087 -0.563,-0.189 -0.692,-0.381 z" />
          <path
             id="use354"
             d="m 173.404,208.519 c 0.007,-0.388 0.207,-0.517 0.368,-0.699 -0.081,0.296 -0.179,0.567 -0.368,0.699 z" />
        </g>
      </g>
      <g
         transform="matrix(1.177461,-0.27081,0.225732,1.4126,-261.91794,-110.00971)"
         id="g364">
        <path
           d="m 235.209,137.504 c -0.384,-0.252 -0.539,-0.083 -0.71,0.02 0.152,0.108 0.472,0.114 0.71,-0.02 z"
           stroke-width="0.052"
           class="Y a"
           id="path360" />
        <path
           d="m 235.003,137.467 c -0.099,-0.05 -0.211,-0.053 -0.309,0.013 0.078,0.017 0.235,0.021 0.309,-0.013 z"
           class="Z"
           id="path362" />
      </g>
      <path
         d="m 45.241,20.787 c -3.117,1.658 -2.849,4.333 -1.572,6.124 0.611,0.857 1.75,1.432 2.86,1.829 0.723,0.259 1.204,0.021 2.318,0.769"
         class="a e"
         id="path366"
         style="fill:none" />
    </g>
    <g
       id="g1178">
      <g
         transform="rotate(4.7469977,1553.0126,-2173.0246)"
         id="g148">
        <path
           d="m 233.178,144.715 c 0.509,0.347 0.449,0.693 0.512,1.038 -0.229,-0.265 -0.491,-0.482 -0.512,-1.038 z m 0.42,1.081 0.114,-0.008 c -0.2,0.467 -0.513,0.68 -0.934,0.649 0.249,-0.228 0.284,-0.583 0.82,-0.641 z"
           stroke-width="0.082"
           class="X Y a"
           id="path140" />
        <g
           transform="matrix(-0.577822,0.066225,0.053133,0.667234,322.65667,-5.269365)"
           class="Z"
           id="g146">
          <path
             id="use142"
             d="m 173.653,209.369 c 0.388,0.014 0.513,0.217 0.692,0.381 -0.294,-0.087 -0.563,-0.189 -0.692,-0.381 z" />
          <path
             id="use144"
             d="m 173.404,208.519 c 0.007,-0.388 0.207,-0.517 0.368,-0.699 -0.081,0.296 -0.179,0.567 -0.368,0.699 z" />
        </g>
      </g>
      <path
         d="m 49.701,20.787 c 3.117,1.658 2.849,4.333 1.572,6.124 -0.611,0.857 -1.75,1.432 -2.86,1.829 -0.723,0.259 -1.204,0.021 -2.318,0.769"
         stroke-width="0.165"
         class="f"
         id="path368"
         style="fill:none" />
      <g
         class="e"
         id="g376"
         transform="translate(-57.686,-117.283)">
        <path
           id="use372"
           d="m 106.538,144.754 c 0.084,-0.274 -0.31,-0.289 -0.339,-0.075 -0.43,-0.185 -0.214,0.641 0.023,0.633 l 0.528,-0.311 c 0.068,-0.036 0.012,-0.342 -0.212,-0.246 z"
           style="fill:#ffffff;stroke:#dcdcdc;" />
        <path
           id="use374"
           d="m 105.751,146.098 0.178,-0.376 c -0.184,-0.335 -0.092,-0.538 -0.083,-0.781 0.068,0.03 0.19,0.006 0.198,0.095 0.048,-0.086 0.154,-0.129 0.289,-0.149 0.019,0.083 0.059,0.165 -0.017,0.248 0.135,-0.08 0.27,-0.053 0.405,-0.037 -0.224,0.245 -0.364,0.542 -0.732,0.641 z"
           style="fill:#2b6643;stroke:#225035;" />
      </g>
      <g
         transform="rotate(68.916014,227.51577,-48.740242)"
         class="e"
         id="g382">
        <path
           id="use378"
           d="m 236.215,144.742 c 0.084,-0.274 -0.31,-0.289 -0.339,-0.075 -0.43,-0.185 -0.214,0.641 0.023,0.633 l 0.528,-0.311 c 0.068,-0.036 0.012,-0.342 -0.212,-0.246 z"
           style="fill:#ffffff;stroke:#dcdcdc;" />
        <path
           id="use380"
           d="m 235.428,146.086 0.178,-0.376 c -0.184,-0.335 -0.092,-0.538 -0.083,-0.781 0.068,0.03 0.19,0.006 0.198,0.095 0.048,-0.086 0.154,-0.129 0.289,-0.149 0.019,0.083 0.059,0.165 -0.017,0.248 0.135,-0.08 0.27,-0.053 0.405,-0.037 -0.224,0.245 -0.364,0.542 -0.732,0.641 z"
           style="fill:#2b6643;stroke:#225035;" />
      </g>
      <g
         transform="rotate(-7.7250216,-729.62515,1465.5719)"
         class="e"
         id="g388">
        <path
           id="use384"
           d="m 236.215,144.742 c 0.084,-0.274 -0.31,-0.289 -0.339,-0.075 -0.43,-0.185 -0.214,0.641 0.023,0.633 l 0.528,-0.311 c 0.068,-0.036 0.012,-0.342 -0.212,-0.246 z"
           style="fill:#ffffff;stroke:#dcdcdc;" />
        <path
           id="use386"
           d="m 235.428,146.086 0.178,-0.376 c -0.184,-0.335 -0.092,-0.538 -0.083,-0.781 0.068,0.03 0.19,0.006 0.198,0.095 0.048,-0.086 0.154,-0.129 0.289,-0.149 0.019,0.083 0.059,0.165 -0.017,0.248 0.135,-0.08 0.27,-0.053 0.405,-0.037 -0.224,0.245 -0.364,0.542 -0.732,0.641 z"
           style="fill:#2b6643;stroke:#225035;" />
      </g>
      <g
         transform="rotate(61.191016,242.31344,-69.8307)"
         class="e"
         id="g394">
        <path
           id="use390"
           d="m 236.215,144.742 c 0.084,-0.274 -0.31,-0.289 -0.339,-0.075 -0.43,-0.185 -0.214,0.641 0.023,0.633 l 0.528,-0.311 c 0.068,-0.036 0.012,-0.342 -0.212,-0.246 z"
           style="fill:#ffffff;stroke:#dcdcdc;" />
        <path
           id="use392"
           d="m 235.428,146.086 0.178,-0.376 c -0.184,-0.335 -0.092,-0.538 -0.083,-0.781 0.068,0.03 0.19,0.006 0.198,0.095 0.048,-0.086 0.154,-0.129 0.289,-0.149 0.019,0.083 0.059,0.165 -0.017,0.248 0.135,-0.08 0.27,-0.053 0.405,-0.037 -0.224,0.245 -0.364,0.542 -0.732,0.641 z"
           style="fill:#2b6643;stroke:#225035;" />
      </g>
      <g
         transform="rotate(-18.357003,-223.41011,659.46554)"
         class="e"
         id="g400">
        <path
           id="use396"
           d="m 236.215,144.742 c 0.084,-0.274 -0.31,-0.289 -0.339,-0.075 -0.43,-0.185 -0.214,0.641 0.023,0.633 l 0.528,-0.311 c 0.068,-0.036 0.012,-0.342 -0.212,-0.246 z"
           style="fill:#ffffff;stroke:#dcdcdc;" />
        <path
           id="use398"
           d="m 235.428,146.086 0.178,-0.376 c -0.184,-0.335 -0.092,-0.538 -0.083,-0.781 0.068,0.03 0.19,0.006 0.198,0.095 0.048,-0.086 0.154,-0.129 0.289,-0.149 0.019,0.083 0.059,0.165 -0.017,0.248 0.135,-0.08 0.27,-0.053 0.405,-0.037 -0.224,0.245 -0.364,0.542 -0.732,0.641 z"
           style="fill:#2b6643;stroke:#225035;" />
      </g>
      <g
         transform="rotate(-103.166,94.517254,157.14185)"
         class="e"
         id="g448">
        <path
           id="use444"
           d="m 236.215,144.742 c 0.084,-0.274 -0.31,-0.289 -0.339,-0.075 -0.43,-0.185 -0.214,0.641 0.023,0.633 l 0.528,-0.311 c 0.068,-0.036 0.012,-0.342 -0.212,-0.246 z"
           style="fill:#ffffff;stroke:#dcdcdc;" />
        <path
           id="use446"
           d="m 235.428,146.086 0.178,-0.376 c -0.184,-0.335 -0.092,-0.538 -0.083,-0.781 0.068,0.03 0.19,0.006 0.198,0.095 0.048,-0.086 0.154,-0.129 0.289,-0.149 0.019,0.083 0.059,0.165 -0.017,0.248 0.135,-0.08 0.27,-0.053 0.405,-0.037 -0.224,0.245 -0.364,0.542 -0.732,0.641 z"
           style="fill:#2b6643;stroke:#225035;" />
      </g>
      <g
         transform="rotate(-121.25803,107.93614,135.75089)"
         class="e"
         id="g460">
        <path
           id="use456"
           d="m 236.215,144.742 c 0.084,-0.274 -0.31,-0.289 -0.339,-0.075 -0.43,-0.185 -0.214,0.641 0.023,0.633 l 0.528,-0.311 c 0.068,-0.036 0.012,-0.342 -0.212,-0.246 z"
           style="fill:#ffffff;stroke:#dcdcdc;" />
        <path
           id="use458"
           d="m 235.428,146.086 0.178,-0.376 c -0.184,-0.335 -0.092,-0.538 -0.083,-0.781 0.068,0.03 0.19,0.006 0.198,0.095 0.048,-0.086 0.154,-0.129 0.289,-0.149 0.019,0.083 0.059,0.165 -0.017,0.248 0.135,-0.08 0.27,-0.053 0.405,-0.037 -0.224,0.245 -0.364,0.542 -0.732,0.641 z"
           style="fill:#2b6643;stroke:#225035;" />
      </g>
      <g
         transform="rotate(-27.786998,-109.07171,457.36504)"
         class="e"
         id="g466">
        <path
           id="use462"
           d="m 236.215,144.742 c 0.084,-0.274 -0.31,-0.289 -0.339,-0.075 -0.43,-0.185 -0.214,0.641 0.023,0.633 l 0.528,-0.311 c 0.068,-0.036 0.012,-0.342 -0.212,-0.246 z"
           style="fill:#ffffff;stroke:#dcdcdc;" />
        <path
           id="use464"
           d="m 235.428,146.086 0.178,-0.376 c -0.184,-0.335 -0.092,-0.538 -0.083,-0.781 0.068,0.03 0.19,0.006 0.198,0.095 0.048,-0.086 0.154,-0.129 0.289,-0.149 0.019,0.083 0.059,0.165 -0.017,0.248 0.135,-0.08 0.27,-0.053 0.405,-0.037 -0.224,0.245 -0.364,0.542 -0.732,0.641 z"
           style="fill:#2b6643;stroke:#225035;" />
      </g>
      <g
         transform="rotate(-89.368015,79.520588,177.24811)"
         class="e"
         id="g472">
        <path
           id="use468"
           d="m 236.215,144.742 c 0.084,-0.274 -0.31,-0.289 -0.339,-0.075 -0.43,-0.185 -0.214,0.641 0.023,0.633 l 0.528,-0.311 c 0.068,-0.036 0.012,-0.342 -0.212,-0.246 z"
           style="fill:#ffffff;stroke:#dcdcdc;" />
        <path
           id="use470"
           d="m 235.428,146.086 0.178,-0.376 c -0.184,-0.335 -0.092,-0.538 -0.083,-0.781 0.068,0.03 0.19,0.006 0.198,0.095 0.048,-0.086 0.154,-0.129 0.289,-0.149 0.019,0.083 0.059,0.165 -0.017,0.248 0.135,-0.08 0.27,-0.053 0.405,-0.037 -0.224,0.245 -0.364,0.542 -0.732,0.641 z"
           style="fill:#2b6643;stroke:#225035;" />
      </g>
    </g>
    <g
       transform="rotate(50.559007,268.7348,-108.63897)"
       class="e"
       id="g406">
      <path
         id="use402"
         d="m 236.215,144.742 c 0.084,-0.274 -0.31,-0.289 -0.339,-0.075 -0.43,-0.185 -0.214,0.641 0.023,0.633 l 0.528,-0.311 c 0.068,-0.036 0.012,-0.342 -0.212,-0.246 z"
         style="fill:#ffffff;stroke:#dcdcdc" />
      <path
         id="use404"
         d="m 235.428,146.086 0.178,-0.376 c -0.184,-0.335 -0.092,-0.538 -0.083,-0.781 0.068,0.03 0.19,0.006 0.198,0.095 0.048,-0.086 0.154,-0.129 0.289,-0.149 0.019,0.083 0.059,0.165 -0.017,0.248 0.135,-0.08 0.27,-0.053 0.405,-0.037 -0.224,0.245 -0.364,0.542 -0.732,0.641 z"
         style="fill:#2b6643;stroke:#225035" />
    </g>
    <g
       transform="rotate(-30.753988,-73.593456,421.09516)"
       class="e"
       id="g412">
      <path
         id="use408"
         d="m 236.215,144.742 c 0.084,-0.274 -0.31,-0.289 -0.339,-0.075 -0.43,-0.185 -0.214,0.641 0.023,0.633 l 0.528,-0.311 c 0.068,-0.036 0.012,-0.342 -0.212,-0.246 z"
         style="fill:#ffffff;stroke:#dcdcdc" />
      <path
         id="use410"
         d="m 235.428,146.086 0.178,-0.376 c -0.184,-0.335 -0.092,-0.538 -0.083,-0.781 0.068,0.03 0.19,0.006 0.198,0.095 0.048,-0.086 0.154,-0.129 0.289,-0.149 0.019,0.083 0.059,0.165 -0.017,0.248 0.135,-0.08 0.27,-0.053 0.405,-0.037 -0.224,0.245 -0.364,0.542 -0.732,0.641 z"
         style="fill:#2b6643;stroke:#225035" />
    </g>
    <g
       transform="rotate(38.161993,316.38956,-179.46994)"
       class="e"
       id="g418">
      <path
         id="use414"
         d="m 236.215,144.742 c 0.084,-0.274 -0.31,-0.289 -0.339,-0.075 -0.43,-0.185 -0.214,0.641 0.023,0.633 l 0.528,-0.311 c 0.068,-0.036 0.012,-0.342 -0.212,-0.246 z"
         style="fill:#ffffff;stroke:#dcdcdc" />
      <path
         id="use416"
         d="m 235.428,146.086 0.178,-0.376 c -0.184,-0.335 -0.092,-0.538 -0.083,-0.781 0.068,0.03 0.19,0.006 0.198,0.095 0.048,-0.086 0.154,-0.129 0.289,-0.149 0.019,0.083 0.059,0.165 -0.017,0.248 0.135,-0.08 0.27,-0.053 0.405,-0.037 -0.224,0.245 -0.364,0.542 -0.732,0.641 z"
         style="fill:#2b6643;stroke:#225035" />
    </g>
    <g
       transform="rotate(-45.646013,0.45358759,303.76888)"
       class="e"
       id="g424">
      <path
         id="use420"
         d="m 236.215,144.742 c 0.084,-0.274 -0.31,-0.289 -0.339,-0.075 -0.43,-0.185 -0.214,0.641 0.023,0.633 l 0.528,-0.311 c 0.068,-0.036 0.012,-0.342 -0.212,-0.246 z"
         style="fill:#ffffff;stroke:#dcdcdc" />
      <path
         id="use422"
         d="m 235.428,146.086 0.178,-0.376 c -0.184,-0.335 -0.092,-0.538 -0.083,-0.781 0.068,0.03 0.19,0.006 0.198,0.095 0.048,-0.086 0.154,-0.129 0.289,-0.149 0.019,0.083 0.059,0.165 -0.017,0.248 0.135,-0.08 0.27,-0.053 0.405,-0.037 -0.224,0.245 -0.364,0.542 -0.732,0.641 z"
         style="fill:#2b6643;stroke:#225035" />
    </g>
    <path
       id="use426"
       d="m 53.382956,24.283478 c 0.185415,-0.218525 -0.170608,-0.38796 -0.281793,-0.202826 -0.321934,-0.339828 -0.449829,0.504313 -0.228948,0.590594 l 0.607915,-0.07711 c 0.07669,-0.0062 0.146136,-0.309439 -0.09757,-0.309743 z"
       style="fill:#ffffff;stroke:#dcdcdc;stroke-width:0.065" />
    <path
       id="use428"
       d="m 52.129009,25.207232 0.312064,-0.275092 c -0.03669,-0.380441 0.128029,-0.530581 0.232298,-0.750258 0.05062,0.05442 0.172174,0.08057 0.144362,0.165495 0.07807,-0.06004 0.192436,-0.05767 0.324356,-0.02271 -0.01534,0.08375 -0.01099,0.174887 -0.113594,0.22111 0.155624,-0.02016 0.268975,0.05798 0.386672,0.126011 -0.302569,0.136576 -0.548515,0.354106 -0.92569,0.299669 z"
       style="fill:#2b6643;stroke:#225035;stroke-width:0.065" />
    <g
       transform="rotate(-88.896013,81.435116,178.36778)"
       class="e"
       id="g436">
      <path
         id="use432"
         d="m 236.215,144.742 c 0.084,-0.274 -0.31,-0.289 -0.339,-0.075 -0.43,-0.185 -0.214,0.641 0.023,0.633 l 0.528,-0.311 c 0.068,-0.036 0.012,-0.342 -0.212,-0.246 z"
         style="fill:#ffffff;stroke:#dcdcdc" />
      <path
         id="use434"
         d="m 235.428,146.086 0.178,-0.376 c -0.184,-0.335 -0.092,-0.538 -0.083,-0.781 0.068,0.03 0.19,0.006 0.198,0.095 0.048,-0.086 0.154,-0.129 0.289,-0.149 0.019,0.083 0.059,0.165 -0.017,0.248 0.135,-0.08 0.27,-0.053 0.405,-0.037 -0.224,0.245 -0.364,0.542 -0.732,0.641 z"
         style="fill:#2b6643;stroke:#225035" />
    </g>
    <path
       id="use438"
       d="m 52.945928,22.259847 c 0.0911,-0.271723 -0.30238,-0.296962 -0.336935,-0.08379 -0.425044,-0.196118 -0.230595,0.635219 0.0065,0.633384 l 0.535908,-0.297166 c 0.06891,-0.03422 0.02089,-0.341572 -0.205532,-0.251429 z"
       style="fill:#ffffff;stroke:#dcdcdc;stroke-width:0.065" />
    <path
       id="use440"
       d="m 52.124248,23.58293 0.187716,-0.371245 c -0.175227,-0.339671 -0.07798,-0.54021 -0.06266,-0.782894 0.0672,0.03176 0.18978,0.01094 0.195463,0.100116 0.05022,-0.08472 0.157302,-0.124952 0.292776,-0.141435 0.01684,0.08347 0.05469,0.166478 -0.02344,0.247474 0.137035,-0.07646 0.271287,-0.04596 0.405826,-0.02646 -0.230295,0.239092 -0.37797,0.532352 -0.74842,0.621749 z"
       style="fill:#2b6643;stroke:#225035;stroke-width:0.065" />
    <g
       transform="rotate(-22.480006,-168.08619,546.76604)"
       class="e"
       id="g454">
      <path
         id="use450"
         d="m 236.215,144.742 c 0.084,-0.274 -0.31,-0.289 -0.339,-0.075 -0.43,-0.185 -0.214,0.641 0.023,0.633 l 0.528,-0.311 c 0.068,-0.036 0.012,-0.342 -0.212,-0.246 z"
         style="fill:#ffffff;stroke:#dcdcdc" />
      <path
         id="use452"
         d="m 235.428,146.086 0.178,-0.376 c -0.184,-0.335 -0.092,-0.538 -0.083,-0.781 0.068,0.03 0.19,0.006 0.198,0.095 0.048,-0.086 0.154,-0.129 0.289,-0.149 0.019,0.083 0.059,0.165 -0.017,0.248 0.135,-0.08 0.27,-0.053 0.405,-0.037 -0.224,0.245 -0.364,0.542 -0.732,0.641 z"
         style="fill:#2b6643;stroke:#225035" />
    </g>
  </g>
  <g
     id="g1604">
    <g
       class="j m"
       id="g530"
       transform="matrix(-1,0,0,1,282.11659,-117.283)">
      <path
         id="use522"
         d="m 224.007,137.91 c -0.085,1.035 -0.423,2.072 -0.182,3.111 0.28,0.652 -0.424,1.005 -0.547,1.575 -0.309,0.672 -0.442,1.428 -0.547,2.171 -0.132,0.707 -0.437,1.366 -0.696,2.032 -0.426,0.469 -0.579,1.034 -0.958,1.512 -0.479,0.206 -1.033,0.039 -1.546,0.087 -0.842,-0.006 -1.687,0.041 -2.518,-0.124 -0.595,-0.118 -1.218,-0.083 -1.797,-0.26 -0.677,-0.188 -0.509,-1.101 -0.688,-1.437 -0.705,-0.061 -1.763,0.624 -2.115,-0.362 -0.044,-0.783 -0.745,-0.991 -1.375,-0.683 -0.56,0.176 -1.497,1.023 -1.918,0.342 a 6.32,6.32 0 0 1 0.035,-1.967 c 0.142,-0.606 0.611,-1.153 1.242,-1.26 0.94,-0.496 -0.418,-1.135 -0.565,-1.723 -0.386,-0.783 -0.036,-1.669 0.375,-2.364 0.69,-0.2 1.419,0.054 2.108,0.125 0.646,0.355 1.205,-0.131 1.757,-0.401 0.725,-0.242 1.498,-0.043 2.246,-0.109 0.757,0.072 1.496,0.177 2.236,0.365 0.717,0.06 1.152,-0.654 1.72,-0.973 0.475,-0.151 1.007,0.082 1.498,0.136 0.595,0.169 1.22,-0.073 1.798,0.168 a 1.14,1.14 0 0 0 0.437,0.039 z"
         style="fill:#ffd700" />
      <g
         class="l p"
         id="g528">
        <path
           d="m 210.724,142.218 12.329,0.973 m -9.827,-2.429 0.925,1.727 -1.042,1.642"
           id="path524" />
        <path
           d="m 215.261,140.762 0.882,1.884 -1.139,2.046 m 1.59,0.234 1.312,-2.141 -0.985,-2.023"
           id="path526" />
      </g>
    </g>
    <path
       id="use548"
       d="m 64.52359,55.629 c 0.946,0.057 1.878,0.267 2.797,0.484 0.371,0.202 0.799,0.15 1.181,0.293 0.492,0.16 1.032,0.106 1.503,0.316 0.488,0.204 0.898,0.579 0.683,1.149 -0.113,0.478 -0.804,0.459 -0.905,0.949 0.057,0.456 -0.066,0.906 -0.181,1.346 -0.043,0.446 -0.326,0.923 -0.831,0.896 -0.414,0.053 -0.821,-0.152 -1.095,-0.441 -0.151,-0.344 -0.515,-0.286 -0.451,0.113 -0.068,0.409 -0.306,0.986 -0.81,0.926 -0.402,-0.155 -0.741,-0.023 -0.963,0.333 -0.368,0.253 -0.669,0.652 -1.14,0.704 -0.468,0.065 -1.051,0.109 -1.227,-0.456 -0.261,-0.328 -0.299,-0.755 -0.498,-1.112 -0.271,-0.445 -0.108,-0.992 -0.143,-1.482 -0.021,-0.541 0.212,-1.034 0.512,-1.467 0.386,-0.459 0.594,-1.03 0.968,-1.498 0.168,-0.155 -0.176,-0.021 0.099,-0.229 0.237,-0.229 0.302,-0.57 0.502,-0.824 z"
       style="fill:#ffd700;stroke:#b09500;stroke-width:0.529" />
    <path
       id="use550"
       d="m 64.95359,56.985 c 1.726,0.342 2.729,0.684 3.77,1.025 -0.73,0.143 -1.596,0.287 -1.654,0.43 -0.079,0.448 0.44,0.673 1.058,0.86 -0.772,-0.022 -0.654,-0.341 -2.315,-0.066 l -0.198,1.191 c -0.143,-0.459 -0.169,-0.964 -0.728,-1.257 -0.994,0.236 -1.086,0.923 -1.224,1.588 0.301,-1.18 -1.122,-1.339 1.29,-3.77 z"
       style="fill:#b09500" />
    <g
       class="j m"
       id="g546"
       transform="matrix(-1,0,0,1,282.11659,-117.283)">
      <path
         id="use532"
         d="m 220.669,154.986 c 0.301,0 0.649,0.062 1.191,0 0.542,-0.062 0.924,-1.051 1.058,-1.588 v 0 c 0.194,-1.164 -0.413,-2.167 -1.283,-2.962 -1.59,-1.453 -0.525,-3.268 -1.451,-4.985 -0.982,-1.82 0.037,-4.143 1.749,-5.378 1.651,-1.19 3.13,-1.904 4.153,-3.875 1.198,-0.3 0.768,3.129 0.715,4.17 1.028,1.289 1.805,1.853 1.323,3.685 1.002,2.006 0.066,4.362 -0.223,6.223 -0.373,0.288 -0.736,-0.126 -0.931,0.303 -0.442,0.971 -0.144,2.258 -1.488,2.143 -0.469,1.162 -0.004,2.677 -1.016,3.885 -5.257,7.058 -17.862,9.784 -18.266,20.776 -0.419,4.583 2.246,11.698 7.072,7.58 0.875,-0.747 0.3,-2.126 -0.64,-2.364 -0.755,-0.192 -1.762,0.553 -2.314,1.447 -1.258,-1.533 1.96,-2.016 0.501,-2.525 -2.111,0.627 -3.607,-2.056 -2.13,-3.62 1.308,-1.623 0.776,1.229 2.009,1.32 2.283,0.247 3.702,2.022 4.064,4.205 1.104,-0.355 0.751,-3.719 1.014,-5.29 l 1.521,-0.099 -1.191,5.854 c 2.32,-0.083 3.201,-1.231 3.142,-3.076 2.907,0.146 2.726,1.555 1.786,3.274 0.827,1.975 -0.651,2.46 -1.158,3.572 -0.11,-1.414 -1.668,-5.083 -6.846,0.992 -1.809,0.7 -1.643,2.278 -6.284,1.72 -1.191,0.313 -2.381,0.203 -3.572,-0.099 -1.131,-0.594 -1.392,-2.044 -2.42,-2.593 -0.665,-1.191 -0.943,-2.486 -1.467,-3.681 -0.882,-1.198 -1.221,-2.681 -1.14,-4.156 0.281,-1.986 -0.685,-3.852 -0.901,-5.797 0.003,-1.448 0.13,-2.94 0.481,-4.33 0.685,-1.609 0.155,-3.313 0.344,-4.976 0.237,-1.412 0.292,-3.365 1.861,-3.966 1.61,-0.548 3.81,0.542 5.149,-0.771 0.656,-1.653 2.195,-2.575 3.805,-2.993 1.449,-0.411 2.508,-1.618 4.051,-1.745 1.257,-0.266 2.548,-0.363 3.831,-0.281 z"
         style="fill:#ffd700" />
      <g
         class="l p"
         id="g542">
        <path
           id="use534"
           d="m 210.317,156.342 c -1.334,3.32 5.631,1.397 8.538,2.12" />
        <path
           id="use536"
           d="m 205.079,160.005 c -0.016,1.145 -0.778,2.019 -1.403,2.877 -0.068,0.988 -0.472,1.785 -1.354,2.23 -0.435,1.053 -0.04,2.302 -0.756,3.288 -0.589,1.042 -0.119,2.217 -0.206,3.334 l -0.014,2.62 c -0.505,1.274 -0.413,2.608 -0.267,3.907 -0.046,1.57 0.46,3.148 0.077,4.699 -0.042,1.06 0.459,2.06 1.084,2.879 0.663,0.758 0.451,1.931 1.44,2.482 0.458,0.947 1.315,1.512 2.336,1.744 l 0.726,0.31" />
        <path
           id="use538"
           d="m 214.152,187.429 c -1.666,-0.003 -3.3,1.377 -4.936,0.515 -1.22,-0.83 -2.823,-1.377 -3.425,-2.843 -0.359,-1.187 -1.447,-2.064 -1.468,-3.355 0.104,-2.219 -0.33,-4.514 0.46,-6.655 0.486,-2.037 1.191,-4.034 2.433,-5.742 l 2.325,-3.28 c 2.546,-3.004 3.929,-3.662 7.265,-5.854 0.965,-0.634 1.778,-1.411 2.523,-2.287 1.067,-0.783 1.646,-2.056 2.563,-2.985 0.106,-0.117 0.296,-0.032 0.297,0.109" />
        <path
           d="m 225.564,147.181 1.405,3.399 m -0.479,-6.078 1.914,3.294 m -5.652,1.535 1.091,-0.86 m -2.017,-0.728 1.72,-0.265 m -2.183,-2.083 2.282,-0.099 m -2.149,-1.819 1.588,0.265 m -0.365,-2.018 1.124,1.025 m -0.462,-2.513 1.455,1.389 m -0.165,-2.381 0.761,1.058 m -18.076,48.613 2.574,-0.725 m -5.052,-0.445 3.061,-0.57 m -4.278,-0.996 2.662,-0.224 m -4.275,-1.413 3.364,-0.284 m -3.481,-1.517 2.601,-0.04 m -2.601,-1.597 2.408,0.072 m -2.502,-2.294 2.463,0.092 m -2.346,-1.472 2.364,0.039 m -2.036,-1.699 2.273,10e-4 m -2.086,-1.849 2.581,0.069 m -2.324,-1.846 2.881,0.155 m -2.881,-2.026 3.746,0.167 m -3.115,-2.084 3.11,-0.023 m -2.899,-1.895 3.718,0.047 m -2.736,-1.614 4.467,-0.023 m -3.672,-1.614 4.724,0.094 m -4.116,-1.871 7.489,0.104 m -6.226,-1.601 7.484,0.07 m -16.368,3.002 3.088,0.117 m -3.35,1.52 2.854,0.133 m -2.845,2.224 2.68,-0.108 m -2.717,1.506 2.32,-0.083 m -2.636,1.304 3.539,0.051 m -3.916,2.153 4.012,-0.188 m -4.116,2.314 2.423,-0.012 m -1.968,2.18 1.77,-0.063 m -1.445,1.414 1.775,-0.091 m -1.603,1.621 2.909,0.083 m -2.932,1.853 1.626,0.015 m -1.056,2.046 2.414,-0.135 m -1.872,1.042 1.994,-0.008 m -1.215,2.127 2.177,-0.281 m -1.489,1.843 2.254,-0.101"
           id="path540" />
      </g>
      <path
         id="use544"
         d="m 217.296,149.977 c 4.245,-0.751 0.167,2.705 1.422,5.009 -1.22,-0.654 -3.698,-4.607 -1.422,-5.009 z"
         style="fill:#ffd700;stroke-linejoin:round" />
    </g>
  </g>
  <path
     d="m 30.281,50.853 c -0.646,0.801 -2.033,1.355 -1.682,2.488 -1.503,-0.626 -2.896,-0.362 -4.311,-0.28 6.016,7.16 14.069,11.926 23.026,11.776 8.957,0.15 17.01,-4.616 23.026,-11.776 -1.415,-0.082 -2.807,-0.346 -4.311,0.28 0.351,-1.133 -1.036,-1.687 -1.682,-2.488 -0.712,3.27 -3.235,4.265 -4.942,7.711 l -0.35,-0.736 c -0.972,1.218 -2.314,2.33 -2.699,3.715 l -0.141,-1.542 c -1.42,0.738 -2.575,1.61 -3.434,2.629 l 0.105,-1.087 c -0.907,0.371 -1.813,0.749 -2.629,1.577 -0.313,-0.882 -1.007,-0.874 -1.577,-1.157 -0.383,0.394 -0.153,0.666 -1.367,1.227 -1.214,-0.561 -0.984,-0.832 -1.367,-1.227 -0.57,0.282 -1.264,0.275 -1.577,1.157 -0.816,-0.828 -1.721,-1.206 -2.628,-1.577 l 0.105,1.087 c -0.86,-1.019 -2.014,-1.89 -3.434,-2.629 l -0.14,1.542 c -0.384,-1.385 -1.727,-2.497 -2.699,-3.715 l -0.35,0.736 c -1.706,-3.446 -4.23,-4.441 -4.942,-7.711 z"
     fill="#ff0000"
     stroke-width="0.265"
     class="n"
     id="path554" />
  <g
     id="g1141">
    <g
       id="g1990">
      <g
         fill="#ff0000"
         class="X k n"
         id="g478"
         transform="translate(-57.686,-117.283)">
        <path
           d="M 105,155.435 A 10.72,10.72 0 0 0 94.278,166.157 10.72,10.72 0 0 0 105,176.878 10.72,10.72 0 0 0 115.722,166.156 10.72,10.72 0 0 0 105,155.435 Z m 0,1.902 a 8.82,8.82 0 0 1 8.82,8.82 8.82,8.82 0 0 1 -8.82,8.82 8.82,8.82 0 0 1 -8.82,-8.82 8.82,8.82 0 0 1 8.82,-8.82 z"
           stroke-width="0.188"
           class="b"
           id="path474" />
        <path
           d="m 104.134,155.805 v 8.26 l -5.841,-5.841 -1.225,1.225 5.841,5.841 h -8.26 v 1.732 h 8.26 l -5.841,5.841 1.225,1.225 6.707,-6.707 6.707,6.707 1.225,-1.225 -5.841,-5.841 h 8.26 v -1.732 h -8.26 l 5.84,-5.841 -1.225,-1.225 -5.841,5.841 v -8.261 z"
           stroke-width="0.094"
           class="b"
           id="path476" />
      </g>
      <path
         d="m 33.891,46.231 c 0.472,0.448 1.335,1.139 0.89,1.773 -1.077,-0.186 -1.768,0.362 -2.482,0.869 0.713,0.507 1.405,1.056 2.482,0.87 0.445,0.635 -0.418,1.325 -0.89,1.773 2.617,-0.089 4.521,-1.071 5.952,-2.643 -1.432,-1.572 -3.336,-2.553 -5.952,-2.643 z"
         fill="#ff0000"
         class="n"
         id="path480"
         style="stroke-width:0.249" />
      <path
         d="m 54.938,60.234 c -0.017,-0.65 -0.139,-1.749 0.625,-1.883 0.63,0.893 1.506,0.995 2.37,1.14 -0.146,-0.863 -0.247,-1.74 -1.14,-2.37 0.134,-0.763 1.233,-0.642 1.883,-0.625 -1.913,-1.787 -3.954,-2.44 -6.078,-2.34 -0.1,2.124 0.553,4.164 2.34,6.078 z m 3.737,-18.983 c -0.65,0.017 -1.749,0.139 -1.883,-0.625 0.893,-0.63 0.995,-1.506 1.14,-2.37 -0.863,0.146 -1.74,0.247 -2.37,1.14 -0.763,-0.134 -0.642,-1.233 -0.625,-1.883 -1.787,1.913 -2.44,3.954 -2.34,6.078 2.124,0.1 4.164,-0.553 6.078,-2.34 z"
         class="i j"
         id="path482"
         style="stroke-width:0.249" />
      <path
         d="m 49.957,35.45 c -0.448,0.472 -1.139,1.335 -1.773,0.89 0.186,-1.077 -0.362,-1.768 -0.869,-2.482 -0.507,0.713 -1.056,1.405 -0.87,2.482 -0.635,0.445 -1.325,-0.418 -1.773,-0.89 0.089,2.617 1.071,4.521 2.643,5.952 1.572,-1.432 2.553,-3.336 2.643,-5.952 z"
         fill="#ff0000"
         class="n"
         id="path484"
         style="stroke-width:0.249" />
      <path
         d="m 39.691,37.513 c 0.017,0.65 0.139,1.749 -0.625,1.883 -0.63,-0.893 -1.506,-0.995 -2.37,-1.14 0.146,0.863 0.247,1.74 1.14,2.37 -0.134,0.763 -1.233,0.642 -1.883,0.625 1.913,1.787 3.954,2.44 6.078,2.34 0.1,-2.124 -0.553,-4.164 -2.34,-6.078 z m -3.737,18.984 c 0.65,-0.017 1.749,-0.139 1.883,0.625 -0.893,0.63 -0.995,1.506 -1.14,2.37 0.863,-0.146 1.74,-0.247 2.37,-1.14 0.763,0.134 0.642,1.233 0.625,1.883 1.787,-1.913 2.44,-3.954 2.34,-6.078 -2.124,-0.1 -4.164,0.553 -6.078,2.34 z"
         class="i j"
         id="path486"
         style="stroke-width:0.249" />
      <path
         d="m 60.738,46.231 c -0.472,0.448 -1.335,1.139 -0.89,1.773 1.077,-0.186 1.768,0.362 2.482,0.869 -0.713,0.507 -1.405,1.056 -2.482,0.87 -0.445,0.635 0.418,1.325 0.89,1.773 -2.617,-0.089 -4.521,-1.071 -5.952,-2.643 1.432,-1.572 3.336,-2.553 5.952,-2.643 z"
         fill="#ff0000"
         class="n"
         id="path488"
         style="stroke-width:0.249" />
    </g>
    <g
       id="g1127"
       style="opacity:0.999"
       transform="translate(-0.38369151)">
      <rect
         style="opacity:0.998;fill:#ffd700;fill-rule:evenodd;stroke:#b09500;stroke-width:0.291042;stroke-linecap:round;stroke-linejoin:round;stroke-miterlimit:4;stroke-dasharray:none;stroke-opacity:1"
         id="rect1118"
         width="1.7381265"
         height="2.1058071"
         x="46.829136"
         y="57.592148" />
      <path
         id="path1120"
         style="fill:#ffd700;fill-opacity:1;stroke:#b09500;stroke-width:0.999999px;stroke-linecap:butt;stroke-linejoin:miter;stroke-opacity:1"
         d="m 180.27734,156.47893 c 0.0452,14.15596 -3.1662,18.16911 -3.02276,24.14121 0.0925,3.85126 0.97954,6.74022 0.97954,10.7673 0,10.27182 -3.70542,14.34513 -1.24193,26.28444 h 3.28515 3.28321 c -2.46349,-13.0423 -0.056,-15.84585 -0.056,-26.23697 -0.46061,-3.83196 -1.53663,-7.51782 -1.50002,-11.19272 0.0769,-7.72259 3.02952,-9.91306 -1.72719,-23.76326 z"
         transform="scale(0.2645833)"
         sodipodi:nodetypes="cssccccsc" />
    </g>
  </g>
</svg>
